<?xml version="1.0" standalone="no"?>
<svg version="1.0" xmlns="http://www.w3.org/2000/svg"
 width="50px" height="50px" viewBox="0 0 564.000000 705.000000"
 preserveAspectRatio="xMidYMid meet">
<g transform="translate(0.000000,705.000000) scale(0.100000,-0.100000)"
fill="#000000" stroke="none">
<path d="M2665 6840 c-27 -4 -81 -14 -120 -23 -38 -9 -108 -18 -155 -21 -47
-3 -107 -9 -135 -15 -103 -20 -197 -31 -263 -31 -37 0 -103 -7 -147 -16 -44
-8 -102 -13 -130 -10 -27 3 -68 1 -90 -3 l-40 -9 45 -2 c25 -2 53 -3 63 -2 40
4 12 -17 -50 -37 -38 -12 -86 -34 -109 -49 -23 -15 -59 -39 -82 -54 -22 -15
-64 -51 -94 -81 -53 -53 -92 -81 -243 -172 -81 -49 -117 -78 -215 -170 -30
-28 -67 -59 -81 -69 -27 -17 -46 -56 -27 -56 5 0 0 -13 -11 -29 -12 -16 -21
-34 -21 -41 0 -7 -8 -24 -17 -38 -54 -82 -79 -135 -88 -187 -4 -22 -13 -51
-20 -65 -19 -38 -45 -103 -48 -125 -2 -11 -10 -40 -17 -65 -7 -25 -13 -49 -11
-54 1 -4 -5 -32 -13 -60 -26 -87 -22 -160 13 -262 17 -51 31 -103 31 -117 0
-14 4 -28 9 -31 4 -3 10 -43 13 -89 3 -46 10 -92 16 -103 5 -10 15 -71 22
-134 6 -63 29 -223 50 -355 22 -132 51 -328 65 -435 36 -273 62 -390 86 -390
4 0 3 15 -3 33 -13 41 -26 137 -18 137 10 0 10 49 0 55 -15 9 -12 25 6 25 8 0
12 5 9 10 -4 6 -10 8 -15 5 -5 -3 -11 -1 -14 4 -7 11 18 33 34 29 7 -2 15 3
18 11 3 10 0 12 -11 8 -9 -3 -19 -3 -21 2 -6 9 48 92 60 93 5 0 19 4 32 9 24
9 29 25 10 32 -10 4 -10 7 -1 18 10 10 16 9 33 -6 19 -18 20 -18 20 0 0 15 3
16 12 7 16 -16 28 -15 28 3 0 8 4 15 9 15 4 0 6 -12 3 -26 -4 -21 -1 -25 14
-22 11 2 18 11 16 21 -3 19 23 24 34 6 4 -8 12 -3 20 12 18 32 17 44 -1 29
-19 -15 -19 -1 -1 23 19 24 29 6 22 -39 -5 -30 -3 -35 11 -32 10 2 18 8 18 13
1 21 23 48 34 41 17 -11 13 -26 -6 -19 -9 4 -14 2 -10 -3 3 -5 -3 -20 -13 -34
-15 -19 -21 -22 -33 -12 -11 10 -18 8 -32 -8 -10 -11 -13 -20 -7 -20 6 0 13 6
15 13 4 7 8 3 13 -11 6 -22 8 -21 53 25 26 27 50 56 54 66 3 9 12 17 19 16 10
0 10 -2 1 -6 -7 -2 -13 -9 -13 -15 0 -11 -74 -105 -99 -125 -8 -7 -11 -13 -5
-13 13 1 32 18 87 77 26 29 47 47 47 41 0 -5 9 0 21 13 l20 24 -7 -25 c-7 -25
-7 -25 15 -6 28 25 27 7 -1 -24 -26 -28 -33 -81 -9 -73 9 3 29 20 44 37 l28
31 -18 -30 c-9 -16 -24 -34 -31 -38 -10 -6 -10 -12 -2 -22 8 -10 6 -16 -8 -27
-16 -11 -17 -15 -7 -25 11 -10 18 -8 37 6 32 24 56 32 64 20 3 -6 -3 -13 -15
-16 -12 -3 -21 -12 -21 -19 0 -8 -4 -14 -10 -14 -5 0 -10 -5 -10 -12 0 -7 15
2 33 18 50 47 88 68 97 55 5 -9 21 -7 60 8 30 11 56 18 59 16 5 -6 7 -5 -49
-33 -25 -13 -56 -29 -70 -37 l-25 -15 25 0 c24 -1 24 -1 6 -15 -11 -8 -16 -18
-12 -22 8 -8 36 24 36 41 0 14 56 46 79 46 9 0 22 5 28 11 8 8 13 8 17 0 4 -6
0 -11 -8 -11 -9 0 -16 -5 -16 -11 0 -6 -7 -9 -15 -5 -8 3 -14 0 -12 -7 1 -7
-4 -11 -11 -9 -15 3 -44 -23 -35 -32 11 -11 24 -6 17 6 -5 7 -2 9 9 5 9 -3 27
3 42 15 14 11 29 17 33 13 4 -3 0 -10 -8 -15 -28 -16 -84 -60 -77 -60 4 0 26
9 48 21 23 11 43 18 46 15 3 -3 -12 -21 -32 -41 -21 -19 -36 -37 -33 -40 2 -2
26 10 53 28 35 24 49 40 51 61 2 22 0 27 -14 22 -13 -5 -13 -3 2 9 11 8 23 15
26 15 10 0 9 -39 -1 -45 -5 -4 -7 -11 -3 -16 6 -10 -30 -48 -73 -76 -17 -11
-20 -18 -12 -23 8 -6 5 -11 -9 -19 -29 -15 -50 -15 -34 1 7 7 12 16 12 22 0 5
-9 -1 -20 -14 -11 -13 -20 -26 -20 -29 0 -4 -12 -14 -27 -23 -16 -10 -22 -18
-14 -18 8 0 22 7 32 16 10 9 23 14 30 12 8 -3 5 -11 -10 -25 -13 -12 -29 -19
-36 -17 -7 3 -16 1 -20 -5 -3 -7 0 -8 9 -5 31 12 16 -6 -21 -25 -21 -11 -31
-20 -23 -20 13 -1 63 34 117 79 7 6 15 10 18 10 3 0 13 4 23 9 9 6 12 11 5 11
-21 0 -15 16 10 28 18 9 19 11 4 11 -27 1 -12 18 22 26 16 3 32 13 35 21 3 8
11 14 17 14 8 0 6 -7 -4 -18 -10 -10 -14 -22 -10 -26 4 -4 1 -11 -7 -17 -11
-7 -7 -8 15 -4 28 5 28 4 -5 -8 -19 -8 -41 -12 -48 -9 -9 3 -12 -2 -10 -14 2
-12 -9 -25 -36 -40 -24 -14 -33 -24 -25 -27 10 -4 10 -6 -2 -6 -9 -1 -22 -8
-29 -16 -14 -17 0 -21 16 -5 6 6 30 17 55 25 39 13 40 14 9 9 l-35 -5 34 16
c41 18 41 18 41 0 0 -8 -21 -26 -47 -39 -56 -29 -93 -55 -77 -56 6 0 17 7 24
15 7 8 30 20 51 26 21 7 48 21 59 31 11 10 26 16 33 12 6 -4 9 -4 5 1 -10 11
15 33 48 41 36 9 76 39 66 49 -4 5 -1 5 6 1 11 -6 10 -12 -4 -27 -16 -18 -16
-19 1 -19 24 0 72 43 67 60 -4 12 -2 13 9 3 10 -10 8 -18 -12 -39 l-24 -27 30
7 30 8 -25 -27 c-26 -28 -59 -49 -66 -43 -2 3 5 14 16 26 25 26 19 27 -25 6
-20 -9 -36 -25 -39 -40 -7 -28 -24 -33 -22 -6 1 13 -6 17 -34 15 -19 -1 -36
-6 -38 -12 -2 -6 -9 -11 -16 -11 -18 0 -66 -24 -66 -33 0 -4 13 -1 30 8 39 20
50 19 21 -4 -13 -10 -19 -21 -14 -24 6 -4 22 4 36 17 17 16 22 26 14 29 -7 2
-2 9 11 16 29 15 37 9 23 -18 -8 -14 -8 -22 1 -27 7 -4 8 -3 4 4 -4 7 -1 12 8
12 19 0 22 -19 4 -21 -7 -1 -20 -3 -28 -4 -22 -2 -53 -17 -68 -32 -18 -18 -1
-17 24 1 10 8 29 12 42 9 14 -3 30 1 42 12 28 25 34 13 10 -18 -36 -45 -19
-52 30 -11 17 15 34 24 37 20 10 -10 -47 -60 -69 -61 -26 -2 -43 -21 -27 -30
7 -5 10 -4 6 2 -4 6 0 14 9 17 27 10 35 -4 14 -26 -11 -12 -17 -25 -14 -30 3
-4 -1 -11 -9 -14 -8 -3 -13 -13 -10 -23 3 -12 -2 -20 -16 -24 -20 -5 -30 -27
-13 -27 17 0 51 41 46 54 -3 8 0 17 5 21 6 3 8 11 5 17 -4 6 1 8 13 4 28 -9
152 81 136 98 -4 3 -1 6 5 6 23 0 22 -21 -1 -44 -14 -14 -26 -23 -28 -21 -2 1
-11 -4 -19 -13 -13 -14 -12 -15 4 -9 16 6 17 5 6 -8 -7 -9 -21 -13 -31 -10 -9
3 -21 0 -25 -6 -5 -9 -2 -10 12 -6 18 7 18 6 2 -7 -26 -19 -22 -30 4 -12 30
22 34 21 48 -15 13 -29 12 -33 -16 -58 -36 -32 -69 -71 -61 -71 3 0 23 17 45
38 113 108 142 130 160 125 12 -3 22 2 26 12 3 9 10 14 15 11 5 -3 14 1 21 9
13 16 30 20 30 8 0 -11 -56 -73 -66 -73 -4 0 -3 5 4 12 7 7 12 19 12 27 0 13
-2 12 -12 -1 -7 -9 -22 -18 -32 -20 -19 -3 -19 -4 -2 -20 22 -22 8 -23 -22 -2
-26 18 -30 7 -5 -11 15 -11 15 -15 4 -29 -8 -10 -9 -16 -3 -16 6 0 14 5 17 10
3 6 11 10 17 10 6 0 5 -6 -3 -16 -7 -8 -21 -13 -31 -11 -12 4 -18 0 -19 -11 0
-12 -2 -13 -6 -4 -7 17 -63 -34 -64 -57 0 -11 -2 -12 -6 -3 -2 6 -9 12 -14 12
-6 0 -8 -4 -5 -9 3 -5 -6 -16 -20 -26 -14 -9 -23 -19 -20 -22 3 -3 17 2 31 11
36 24 34 -6 -2 -32 -16 -11 -25 -24 -21 -28 11 -11 39 17 55 54 7 17 18 32 24
32 5 0 7 5 3 11 -4 8 3 9 24 4 18 -3 33 -2 37 4 3 6 10 11 16 11 5 0 -1 -16
-13 -35 -22 -34 -38 -45 -38 -26 0 5 6 12 13 14 9 4 8 8 -3 16 -11 8 -16 7
-18 -4 -2 -8 -8 -15 -13 -15 -17 0 -9 -15 15 -26 26 -12 56 -2 56 20 0 7 9 22
20 34 16 17 17 22 6 22 -8 0 -16 6 -19 13 -3 8 -10 7 -26 -7 -17 -16 -24 -17
-34 -7 -10 11 -9 13 3 9 8 -2 19 -1 25 4 5 5 31 22 57 39 34 22 45 35 41 47
-5 13 -3 14 6 6 19 -17 -3 -52 -42 -69 -20 -9 -25 -14 -14 -15 10 0 29 7 42
16 30 20 33 12 4 -14 l-20 -20 24 -6 c31 -7 59 -1 91 19 29 19 34 30 11 21 -8
-3 -15 -1 -15 3 0 14 26 21 37 10 6 -6 20 -6 37 1 15 5 35 10 44 10 15 -1 15
-3 -2 -15 -11 -8 -16 -15 -10 -15 12 -1 -35 -40 -48 -40 -5 0 -6 5 -2 12 4 7
3 8 -4 4 -7 -4 -12 -12 -12 -17 0 -6 -7 -18 -16 -26 -13 -13 -17 -14 -24 -3
-10 17 -26 6 -33 -22 -6 -23 -6 -23 9 -3 12 16 16 17 23 6 7 -11 18 -7 55 18
25 18 54 40 64 50 17 18 101 55 108 48 2 -2 -18 -13 -45 -25 -26 -13 -56 -31
-65 -41 -16 -18 -16 -18 9 -18 14 0 28 3 31 8 3 5 18 9 34 9 16 0 40 5 54 11
20 9 29 9 41 -1 9 -7 15 -8 15 -2 0 6 21 9 48 9 38 -2 46 -4 34 -13 -11 -8 1
-10 46 -10 34 0 59 3 56 8 -3 4 2 5 10 2 17 -7 80 25 144 73 24 17 49 34 55
36 7 2 9 8 5 12 -5 5 -16 1 -25 -7 -20 -17 -63 -41 -63 -35 0 3 17 16 38 29
44 30 94 79 87 86 -2 3 -16 -3 -29 -12 -21 -13 -24 -13 -20 -1 3 8 14 17 24
20 22 7 57 45 41 45 -6 0 -24 -8 -38 -17 -31 -20 -26 -6 10 35 16 17 17 22 6
22 -8 0 -20 -5 -27 -12 -7 -7 -12 -8 -12 -4 0 5 10 17 22 27 11 11 17 19 12
19 -5 0 0 7 10 15 19 14 18 15 -10 15 -17 0 -35 -5 -42 -12 -6 -6 -14 -9 -18
-6 -3 3 8 14 25 24 17 10 31 22 31 25 0 4 8 15 17 25 16 16 16 16 -7 9 -22 -7
-23 -6 -11 9 15 18 8 21 -20 6 -29 -16 -23 5 9 29 l27 20 -27 1 c-16 0 -28 -5
-28 -12 0 -6 -3 -8 -7 -5 -3 4 4 19 18 34 18 20 20 25 7 20 -39 -14 -12 20 42
53 8 5 12 11 9 14 -7 7 -59 -7 -59 -16 0 -4 -21 -27 -48 -50 -46 -42 -46 -42
-21 -8 15 19 36 40 48 46 11 6 18 14 15 17 -4 4 9 26 29 50 20 24 39 56 42 70
4 15 11 24 16 21 5 -3 9 0 9 6 0 13 61 51 72 44 5 -3 6 -9 3 -14 -7 -12 28
-22 49 -14 9 3 13 10 10 15 -3 5 0 9 5 9 6 0 11 -11 11 -25 0 -35 10 -37 234
-43 62 -2 67 -3 55 -19 -13 -15 -11 -15 26 -8 63 12 165 22 165 15 0 -3 18 -5
40 -3 22 1 42 -2 45 -8 4 -5 19 -9 36 -9 16 0 29 -4 29 -9 0 -5 42 -8 93 -7
54 2 119 -3 157 -12 86 -20 345 -17 408 4 24 9 50 13 58 10 8 -3 14 -1 14 3 0
5 28 12 63 16 34 4 79 12 100 18 34 9 38 14 34 36 -5 23 -4 24 8 8 14 -20 41
-24 28 -4 -4 6 -8 25 -9 40 -1 22 1 25 10 14 16 -21 66 -31 66 -13 0 7 7 19
15 26 11 9 13 16 5 24 -16 16 -12 28 9 21 10 -3 24 1 31 10 7 9 8 15 2 15 -6
0 -12 -6 -15 -12 -2 -7 -8 -10 -12 -6 -15 14 5 40 26 35 17 -5 18 -3 8 9 -11
13 -9 14 15 8 20 -5 26 -3 24 7 -2 9 4 13 15 11 11 -2 21 6 26 21 5 13 16 24
25 24 8 0 13 -4 10 -9 -9 -15 32 -8 72 12 21 10 35 19 31 20 -17 0 15 39 35
42 15 2 22 9 20 19 -1 9 9 28 23 43 14 15 25 29 25 31 0 2 17 30 38 62 21 32
51 86 67 120 33 73 44 77 17 7 -23 -58 -37 -117 -23 -94 20 32 93 282 116 395
9 44 21 96 26 115 5 22 5 36 -1 38 -6 2 -10 15 -10 29 0 21 3 23 14 14 11 -9
15 -2 21 45 8 65 -1 86 -11 25 -7 -44 -24 -66 -24 -32 0 12 -5 21 -11 21 -6 0
-8 -9 -4 -20 3 -11 2 -28 -4 -37 -8 -14 -11 -15 -11 -3 -1 40 -20 138 -31 165
-6 17 -13 35 -14 40 -2 6 -6 22 -10 36 -4 16 -2 30 4 34 8 4 8 12 0 27 -6 11
-9 35 -6 52 5 36 -1 59 -13 51 -5 -3 -12 10 -16 30 -3 19 -10 38 -15 41 -12 7
-11 1 1 -32 6 -15 13 -39 15 -53 2 -14 8 -44 14 -66 7 -27 7 -43 0 -50 -7 -7
-8 -4 -3 9 5 13 4 17 -4 12 -7 -4 -12 -2 -12 6 0 16 -52 122 -62 126 -5 2 -8
11 -8 20 0 10 -9 28 -20 42 -11 14 -20 33 -20 43 0 10 -5 15 -10 12 -6 -4 -8
-11 -5 -16 4 -5 1 -9 -5 -9 -6 0 -2 -17 10 -40 11 -22 18 -40 15 -40 -2 0 -13
17 -24 38 -14 28 -17 42 -9 56 8 14 6 22 -7 35 -15 15 -16 14 -9 -13 6 -26 5
-28 -7 -16 -9 8 -14 26 -11 44 3 28 2 29 -11 13 -13 -16 -15 -16 -21 -2 -3 9
-2 13 4 10 6 -3 10 -3 10 2 0 11 -20 40 -20 29 0 -18 -30 17 -30 36 0 10 -5
16 -10 13 -6 -4 -13 7 -16 24 -4 16 -17 38 -30 48 -13 10 -24 21 -24 26 0 12
-73 97 -83 97 -5 0 8 -19 28 -42 19 -23 38 -53 41 -65 4 -13 10 -23 14 -23 8
0 60 -86 60 -99 0 -5 -35 44 -72 104 -7 11 -34 45 -60 76 -53 63 -58 73 -28
64 22 -7 26 5 8 23 -15 15 -32 16 -23 2 6 -9 -6 -13 -22 -7 -5 1 -8 14 -8 29
0 14 -4 30 -8 35 -8 8 -12 9 -38 12 -6 0 -9 10 -6 21 5 19 -4 25 -28 20 -5 -1
-7 2 -3 5 4 4 -9 23 -29 42 -28 27 -37 32 -44 22 -6 -10 -8 -6 -7 11 2 19 -1
25 -15 24 -10 -1 -16 1 -13 4 10 9 -15 31 -28 26 -7 -3 -19 3 -26 13 -12 15
-12 16 0 6 26 -23 34 -13 10 12 -12 13 -27 22 -33 18 -6 -3 -7 -2 -4 4 9 14
-39 54 -57 47 -8 -3 -17 -1 -21 5 -4 7 1 8 12 4 16 -6 16 -5 4 10 -7 9 -20 17
-28 17 -8 0 -11 5 -7 12 5 7 2 9 -9 5 -11 -4 -14 -2 -11 7 3 7 -2 16 -11 20
-9 3 -13 2 -10 -4 12 -19 -8 -10 -40 19 -19 16 -31 33 -27 37 4 4 1 4 -5 0 -7
-4 -39 11 -73 34 -34 22 -64 40 -68 40 -4 1 -36 19 -72 41 -78 48 -45 42 56
-12 40 -20 75 -35 78 -32 3 4 6 1 6 -5 0 -7 7 -12 15 -12 29 0 14 16 -47 49
-35 19 -65 37 -68 41 -10 12 -196 98 -250 115 -30 10 -85 31 -122 47 -36 16
-79 31 -95 33 -54 8 -142 41 -154 59 -4 5 -33 10 -64 12 -34 2 -65 10 -75 19
-9 8 -27 15 -39 15 -12 0 -43 9 -69 19 -26 10 -94 26 -152 35 -114 17 -394 26
-475 16z m549 -926 c21 -8 20 -24 -1 -24 -17 -1 -17 -1 0 -11 12 -7 22 -8 28
-2 6 6 43 -7 96 -34 47 -24 92 -43 99 -43 7 0 14 -5 16 -11 2 -6 14 -12 26
-13 12 0 22 -5 23 -11 0 -13 61 -45 73 -38 5 4 6 0 1 -7 -5 -8 -3 -11 6 -8 8
3 43 -11 79 -31 36 -19 98 -51 138 -71 40 -20 70 -39 67 -42 -10 -10 94 -80
106 -72 8 5 9 3 4 -6 -6 -10 -4 -12 8 -7 12 4 17 1 17 -9 0 -13 -7 -12 -37 7
-21 13 -80 45 -132 71 -52 26 -98 53 -101 59 -4 6 -23 12 -42 13 -40 3 -61 13
-53 26 4 7 -27 26 -175 106 -19 11 -37 22 -40 25 -10 12 -50 20 -50 11 0 -6
-35 10 -77 34 -43 25 -95 50 -115 56 -21 6 -38 15 -38 19 0 5 11 3 25 -3 28
-12 48 -2 25 12 -17 11 0 13 24 4z"/>
<path d="M1094 3163 c-15 -15 -19 -61 -6 -79 11 -17 145 -96 167 -98 11 -1 31
-8 44 -15 28 -16 46 -2 36 28 -8 27 -130 151 -148 151 -7 0 -18 5 -25 12 -17
17 -51 17 -68 1z"/>
<path d="M779 2903 c-36 -22 -54 -56 -73 -139 -15 -68 -13 -139 5 -150 5 -3 9
-11 9 -19 0 -12 36 -75 92 -163 10 -15 24 -39 32 -53 9 -15 22 -29 31 -32 8
-4 15 -13 15 -21 0 -8 14 -24 30 -36 17 -12 30 -28 30 -36 0 -24 31 -52 51
-47 14 4 18 1 14 -9 -4 -10 7 -14 49 -16 30 -1 57 2 60 7 7 11 -47 52 -92 70
-47 19 -107 92 -155 189 -36 73 -41 92 -41 150 1 54 7 78 31 127 34 67 68 164
60 172 -7 7 -78 23 -102 22 -11 0 -32 -7 -46 -16z"/>
<path d="M1043 2850 c3 -11 0 -18 -7 -17 -11 2 -12 -29 -2 -118 4 -35 0 -46
-30 -80 -52 -60 -59 -143 -18 -196 6 -8 20 -38 30 -68 25 -72 54 -85 168 -74
127 12 131 11 129 -20 -1 -15 2 -27 8 -27 5 0 9 7 9 15 0 8 5 15 10 15 6 0 10
-7 10 -15 0 -8 16 -25 36 -39 30 -20 44 -23 97 -20 34 3 68 11 75 18 21 21 5
54 -41 84 -52 33 -57 40 -57 75 0 41 -39 164 -56 178 -7 6 -31 17 -51 24 -43
15 -55 40 -23 48 40 10 -6 77 -54 77 -39 0 -50 9 -54 40 -4 31 -18 42 -104 86
-79 40 -82 40 -75 14z"/>
<path d="M5142 2799 c-7 -10 -16 -18 -21 -16 -5 1 -44 -34 -87 -79 -47 -47
-98 -90 -126 -103 -27 -13 -48 -26 -48 -30 0 -6 -31 -25 -62 -37 -10 -3 -20
-15 -23 -25 -6 -18 -17 -22 -60 -21 -17 1 -18 0 -2 -4 16 -5 16 -8 -7 -30 -20
-21 -31 -24 -58 -19 -25 5 -38 2 -47 -9 -15 -18 -41 -21 -41 -6 0 6 -7 10 -15
10 -8 0 -14 6 -13 13 2 7 -9 13 -24 15 -16 2 -28 -1 -28 -5 0 -5 -25 -9 -56
-9 -41 0 -59 -4 -69 -17 -15 -21 -25 -22 -25 -1 0 12 -7 10 -32 -9 -41 -30
-63 -38 -74 -27 -5 5 -38 3 -74 -5 -35 -7 -68 -11 -73 -8 -16 10 -102 11 -114
1 -9 -7 -17 -5 -28 6 -20 20 -44 20 -69 1 -10 -8 -22 -12 -26 -10 -5 3 -24 -2
-44 -10 -20 -9 -51 -15 -69 -15 -18 1 -54 -3 -82 -8 -35 -7 -42 -10 -21 -11
16 0 27 -4 24 -7 -3 -3 -61 -5 -128 -5 -107 1 -121 -1 -110 -14 10 -12 9 -15
-5 -15 -9 0 -19 8 -22 19 -4 16 -15 18 -83 17 -44 -1 -75 -2 -70 -4 13 -5 13
-32 0 -32 -15 0 0 -28 18 -33 10 -3 -8 -2 -38 0 -38 3 -51 2 -41 -5 8 -6 11
-17 8 -25 -4 -11 -22 -15 -69 -15 -35 0 -76 -5 -91 -11 -16 -6 -32 -11 -37
-11 -5 0 -14 -9 -20 -20 -6 -11 -21 -20 -33 -20 -17 0 -25 -9 -33 -35 -6 -20
-7 -38 -3 -41 5 -3 9 -14 9 -25 0 -11 8 -23 18 -26 9 -4 23 -13 31 -20 7 -8
22 -11 33 -7 14 4 24 -1 34 -15 9 -12 21 -21 28 -21 7 0 38 -25 70 -55 31 -30
63 -55 71 -55 8 0 15 -6 15 -12 0 -7 20 -23 43 -35 23 -12 41 -26 39 -32 -3
-14 15 -14 23 -1 3 6 13 10 21 10 8 0 13 -4 10 -9 -3 -5 8 -14 24 -20 17 -5
30 -15 30 -20 0 -6 11 -11 25 -11 14 0 25 5 25 11 0 8 4 8 14 -1 8 -6 25 -11
38 -9 13 1 30 -1 38 -4 8 -4 58 9 110 28 52 18 91 34 85 34 -10 1 10 13 96 57
26 13 52 31 59 39 7 8 18 15 24 15 6 0 40 14 74 30 35 17 72 30 83 30 10 0 19
4 19 10 0 11 69 32 82 24 5 -3 20 1 33 10 13 9 34 16 45 16 30 0 70 29 70 51
0 11 4 19 10 19 5 0 9 3 8 8 -4 16 58 102 74 102 10 0 27 9 38 20 11 11 25 20
30 20 6 0 10 6 10 13 0 8 3 7 10 -3 5 -8 10 -12 12 -10 2 3 8 14 14 24 6 11
19 24 29 30 25 14 45 39 39 48 -3 4 2 5 11 1 9 -3 12 -8 7 -12 -24 -14 -57
-148 -53 -213 1 -25 26 -22 55 7 14 14 32 25 40 25 8 0 18 9 21 21 4 11 26 41
50 65 24 24 45 54 47 66 2 18 9 23 31 21 25 -2 27 1 21 20 -6 20 -5 21 11 7
16 -14 17 -13 11 8 -5 14 -3 22 4 22 16 0 53 -21 62 -34 5 -8 11 -7 20 2 11
11 8 17 -12 34 l-25 21 32 -6 c26 -5 33 -3 38 14 7 22 -30 73 -46 63 -5 -3 -9
0 -9 5 0 6 6 11 13 11 8 0 7 4 -3 10 -13 9 -13 12 0 23 8 6 28 30 45 52 16 22
67 78 113 125 46 47 88 93 93 102 13 24 -4 31 -19 7z"/>
<path d="M810 2239 c-271 -37 -330 -52 -476 -115 -56 -24 -111 -44 -123 -44
-12 0 -29 -4 -39 -9 -9 -5 -46 -21 -82 -37 -36 -15 -71 -32 -77 -37 -10 -8
-13 -220 -13 -1003 l0 -994 1477 3 1478 2 7 35 c12 60 49 154 65 167 10 8 13
20 9 36 -5 20 -1 26 18 31 25 6 86 -11 86 -24 0 -4 8 -10 19 -13 20 -5 33 -51
19 -65 -14 -14 -19 -75 -6 -83 6 -4 -3 -10 -21 -14 -27 -6 -31 -11 -30 -38 1
-31 1 -31 9 -7 l8 25 1 -27 1 -28 975 0 975 0 -4 23 c-12 56 -17 103 -26 257
-13 227 -47 434 -89 560 -5 14 -15 45 -22 70 -27 91 -99 194 -130 185 -14 -5
-26 8 -34 35 -9 33 -19 50 -30 50 -7 0 -25 15 -39 33 -20 25 -26 28 -26 13 0
-13 -5 -16 -17 -12 -10 4 -24 -2 -36 -14 -11 -12 -26 -19 -34 -15 -9 3 -43 10
-77 15 -34 5 -81 14 -106 19 -59 13 -132 13 -165 1 -15 -6 -83 -12 -151 -14
-117 -4 -126 -3 -144 17 -11 11 -20 30 -21 41 -3 58 4 94 23 120 12 16 21 43
21 58 0 19 3 24 9 16 6 -10 8 -10 8 0 0 6 8 12 17 12 15 0 15 1 -2 13 -50 37
-155 -28 -155 -96 0 -18 -5 -38 -11 -44 -8 -8 -8 -20 0 -45 57 -180 69 -208
84 -208 6 0 23 -15 38 -32 16 -18 28 -27 29 -20 0 17 18 15 22 -4 4 -19 112
-64 156 -64 21 0 40 7 50 19 10 11 33 28 52 38 19 10 36 27 38 38 2 11 11 35
20 53 16 32 19 33 62 27 25 -4 55 -9 68 -12 l23 -5 -21 -20 c-12 -11 -30 -39
-40 -62 -24 -56 -86 -124 -129 -142 -20 -9 -56 -18 -81 -20 -25 -2 -74 -11
-110 -19 -36 -9 -85 -20 -110 -25 -25 -4 -58 -11 -75 -14 -97 -19 -105 -19
-105 -1 0 16 -9 17 -95 12 -53 -3 -102 -11 -110 -17 -8 -7 -37 -12 -65 -13
-28 0 -53 -4 -56 -9 -3 -4 -12 -8 -21 -8 -12 0 -14 7 -10 30 4 19 1 34 -8 44
-8 8 -15 20 -15 27 0 9 -17 10 -65 6 -48 -5 -65 -3 -65 6 0 8 -4 7 -11 -3 -9
-13 -10 -12 -5 3 7 23 -3 47 -19 41 -7 -3 -19 2 -28 10 -9 9 -29 16 -46 16
-22 0 -31 5 -31 16 0 12 -6 15 -25 10 -16 -4 -25 -2 -25 5 0 14 -72 2 -81 -13
-3 -5 -22 -7 -43 -3 -26 5 -36 12 -36 26 0 11 -4 19 -8 19 -4 0 -32 23 -61 51
l-54 51 -18 -23 c-18 -24 -19 -24 -19 -2 0 12 5 23 12 25 6 2 8 10 4 16 -5 8
-37 12 -92 12 -49 0 -84 4 -84 10 0 6 -18 10 -40 10 -22 0 -40 -4 -40 -10 0
-5 -18 -10 -40 -10 -22 0 -40 5 -40 10 0 17 -17 11 -48 -15 -17 -14 -42 -25
-56 -25 -24 0 -26 4 -26 40 0 28 -4 40 -14 40 -8 0 -16 5 -18 12 -7 21 -28 -3
-28 -33 0 -36 -17 -37 -55 -5 -17 15 -39 24 -59 23 -21 -1 -40 8 -56 24 -14
13 -36 32 -50 42 -24 17 -24 18 -2 13 12 -2 22 0 22 5 0 15 -40 51 -53 46 -15
-5 -22 -47 -8 -47 6 0 11 -5 11 -11 0 -6 -9 -8 -20 -4 -11 3 -20 2 -20 -3 0
-6 -8 -13 -17 -16 -12 -5 -26 2 -44 24 -15 16 -45 36 -67 44 -35 13 -43 12
-61 -1 -12 -8 -20 -20 -19 -27 2 -7 -13 -28 -32 -47 l-35 -34 33 -3 c29 -3 32
-6 32 -37 0 -19 -5 -37 -11 -40 -7 -5 -4 -14 7 -26 28 -31 9 -33 -47 -5 -29
14 -59 26 -66 26 -7 0 -13 4 -13 9 0 5 -9 12 -19 16 -11 3 -21 16 -23 28 -2
16 -11 23 -34 25 -25 2 -35 11 -50 42 -11 22 -24 40 -30 40 -6 0 -18 7 -25 16
-11 14 -10 18 5 30 14 10 16 17 9 26 -6 7 -13 33 -17 58 -14 109 -26 223 -32
320 -7 104 -6 105 17 117 42 21 136 41 150 32 45 -29 75 19 64 103 -6 53 -22
98 -35 98 -4 0 -26 -29 -49 -65 -33 -50 -54 -71 -91 -90 -53 -27 -64 -30 -56
-16 3 4 -13 3 -35 -3 -32 -8 -54 -7 -112 8 -85 22 -121 42 -204 113 -33 29
-66 53 -73 53 -6 0 -8 5 -5 11 4 6 -2 13 -13 16 -12 3 -25 18 -31 34 -5 16
-17 29 -25 29 -8 0 -30 15 -48 33 -32 32 -35 33 -88 26z m577 -368 c13 -7 2
-22 -60 -85 -42 -42 -89 -94 -104 -114 -15 -20 -31 -39 -34 -42 -3 -3 -14 -27
-25 -55 -28 -72 -26 -256 4 -387 25 -109 27 -143 11 -132 -6 3 -41 47 -79 98
-37 50 -77 99 -88 110 -12 10 -30 35 -41 56 -22 43 -32 84 -46 200 -3 30 -13
72 -21 94 -23 59 -22 59 281 223 89 48 105 53 143 48 24 -2 51 -9 59 -14z
m2764 -1271 c-24 -97 -35 -121 -60 -142 -29 -24 -49 -22 -54 5 -4 22 -6 19
-22 -28 -5 -15 -8 -16 -14 -6 -5 8 -17 11 -30 6 -29 -9 -26 -23 7 -28 19 -3
14 -4 -15 -6 -29 -1 -43 -5 -43 -15 0 -7 -11 -21 -25 -30 -14 -9 -23 -22 -19
-27 4 -6 -2 -9 -12 -8 -11 2 -25 0 -31 -4 -8 -5 -13 -4 -13 3 0 7 -6 8 -19 0
-11 -5 -29 -10 -41 -10 -12 0 -37 -7 -56 -16 -22 -11 -48 -14 -76 -11 -73 9
-108 19 -108 29 0 6 -11 19 -25 30 -14 11 -25 24 -25 30 0 6 11 8 25 6 14 -3
25 -1 25 3 0 5 10 9 23 9 12 0 35 7 51 15 43 23 203 58 255 56 56 -1 98 24
177 106 33 35 65 63 70 63 5 0 23 11 39 24 17 13 31 23 32 22 1 -1 -6 -35 -16
-76z"/>
</g>
</svg>
