<?xml version="1.0" standalone="no"?>
<svg version="1.0" xmlns="http://www.w3.org/2000/svg"
 width="70px" height="60px" viewBox="0 0 780.000000 440.000000"
 preserveAspectRatio="xMidYMid meet">
<g transform="translate(0.000000,440.000000) scale(0.100000,-0.100000)"
fill="#000000" stroke="none">
<path d="M1722 4388 c-12 -15 -40 -111 -52 -181 -12 -66 -4 -102 42 -171 37
-58 38 -62 38 -150 0 -50 -7 -134 -16 -186 -20 -117 -24 -453 -7 -555 6 -38
16 -108 22 -155 6 -47 15 -107 20 -134 6 -27 13 -74 15 -105 2 -31 7 -64 11
-74 10 -25 -2 -62 -30 -93 -37 -40 -66 -92 -54 -100 6 -3 17 2 24 12 17 22 20
11 5 -17 -6 -10 -20 -19 -30 -19 -11 0 -20 -5 -20 -11 0 -5 4 -7 10 -4 14 9
12 -1 -9 -43 -23 -46 -38 -95 -22 -72 9 12 10 8 6 -15 -13 -73 -12 -112 2
-139 9 -18 13 -42 9 -65 -3 -20 -8 -61 -11 -91 -2 -30 -7 -78 -10 -107 -4 -44
-3 -51 10 -47 10 4 15 0 15 -14 0 -11 2 -27 5 -35 5 -10 -1 -13 -25 -9 -18 2
-34 10 -36 16 -6 16 -66 8 -61 -8 2 -6 12 -10 21 -8 20 4 66 -23 66 -38 0 -6
-9 -10 -20 -10 -22 0 -27 -15 -7 -24 10 -5 10 -7 0 -12 -7 -3 -13 -14 -13 -25
0 -13 -7 -19 -21 -19 -16 0 -20 -5 -16 -20 6 -25 2 -25 -34 1 -29 20 -29 20
-29 0 0 -11 -5 -23 -11 -26 -5 -4 -9 -17 -8 -28 3 -39 -1 -49 -15 -44 -23 9
-7 -30 20 -48 28 -18 30 -32 7 -57 -11 -13 -12 -18 -3 -18 10 0 10 -3 0 -15
-7 -8 -18 -15 -24 -15 -18 0 -86 -65 -86 -83 0 -9 9 -36 19 -59 45 -100 51
-119 66 -209 22 -137 20 -224 -6 -260 -17 -24 -27 -29 -64 -29 l-43 0 4 -67
c6 -77 13 -94 64 -148 83 -89 153 -197 235 -362 47 -95 85 -177 85 -183 0 -6
115 -10 330 -10 l330 0 0 40 c0 28 4 40 14 40 8 0 16 8 19 18 3 14 6 13 14 -8
10 -22 12 -23 18 -8 10 26 26 11 19 -17 -3 -13 -3 -33 1 -44 l6 -21 1255 0
c829 0 1254 3 1254 10 0 13 47 13 55 0 4 -6 63 -10 148 -9 110 0 135 3 112 11
-16 5 -43 16 -60 23 -16 7 -48 18 -70 25 -22 7 -49 18 -60 24 -11 7 -49 21
-85 30 -67 19 -179 78 -193 102 -4 8 -13 14 -19 14 -6 0 -41 14 -77 31 -36 17
-76 31 -89 31 l-24 1 3 141 c2 140 -5 206 -22 206 -5 0 -9 9 -9 19 0 11 -4 22
-9 25 -4 3 -12 38 -16 78 -3 40 -10 78 -14 83 -8 9 -20 48 -27 85 -7 39 -11
50 -17 56 -4 4 -7 15 -7 25 0 9 -6 19 -14 22 -7 3 -23 34 -34 69 -30 91 -51
147 -66 177 -20 38 -37 153 -30 192 4 19 26 77 49 129 32 73 46 96 63 98 48 7
111 -73 105 -133 -1 -16 -4 -87 -6 -158 -4 -143 3 -163 44 -125 21 20 26 38
37 148 8 70 20 135 28 147 8 12 14 27 14 32 0 6 11 34 24 64 29 63 44 156 27
166 -18 12 -38 108 -45 221 -8 124 -28 196 -73 263 -18 27 -33 55 -33 62 0 7
-9 24 -20 37 -10 14 -40 65 -64 114 -25 49 -66 111 -91 139 -25 27 -45 52 -45
55 0 3 -15 14 -32 24 -18 11 -41 27 -51 38 -23 23 -43 23 -64 -2 -20 -24 -41
-25 -67 -5 -29 22 -39 18 -34 -10 3 -14 1 -28 -4 -31 -5 -3 -4 -12 3 -20 6 -8
10 -17 7 -19 -7 -7 -132 22 -175 40 -18 8 -33 11 -33 7 0 -3 -5 -1 -12 6 -7 7
-20 12 -30 12 -10 0 -18 4 -18 8 0 4 -30 15 -68 25 -37 10 -78 23 -92 30 -14
7 -50 20 -80 29 -30 10 -134 42 -230 72 -208 65 -231 70 -239 57 -4 -6 -28 -4
-66 4 -53 13 -61 13 -78 -2 -14 -13 -17 -14 -12 -2 3 8 21 23 40 33 34 19 51
41 36 50 -17 11 -73 -37 -91 -77 -25 -55 -25 -62 5 -65 33 -2 92 -27 112 -47
8 -9 25 -15 37 -14 20 2 39 -3 81 -22 45 -20 181 -62 198 -61 9 0 29 -6 45
-14 15 -7 39 -14 55 -14 15 0 27 -3 27 -7 0 -13 229 -91 585 -201 174 -54 176
-54 197 -35 22 20 56 10 38 -12 -6 -8 -9 -18 -7 -23 3 -4 2 -14 -3 -22 -20
-33 -106 -30 -263 8 -114 28 -130 30 -143 17 -9 -8 -20 -15 -26 -15 -5 0 -7
-7 -4 -16 3 -8 2 -12 -4 -9 -13 8 -13 35 0 35 6 0 10 5 10 11 0 6 -9 8 -20 4
-13 -4 -22 -1 -26 9 -3 9 -20 22 -38 30 -75 33 -375 127 -401 126 -5 -1 13
-13 40 -27 28 -14 65 -39 83 -54 18 -16 37 -29 43 -29 6 0 32 -18 58 -40 26
-22 51 -40 57 -40 5 -1 24 -20 43 -44 24 -31 39 -42 52 -39 15 4 19 0 19 -19
0 -32 10 -41 28 -25 9 7 17 8 19 2 12 -34 31 -60 44 -58 16 3 24 -52 10 -62
-5 -3 -7 -14 -4 -25 3 -11 0 -20 -6 -20 -6 0 -11 -9 -11 -20 0 -11 -4 -20 -10
-20 -5 0 -10 -7 -10 -15 0 -8 -14 -18 -33 -23 -17 -4 -32 -14 -32 -20 0 -7 -3
-11 -6 -9 -4 1 -16 -6 -26 -15 -14 -13 -22 -15 -30 -7 -8 8 -18 1 -35 -24 -19
-28 -27 -33 -41 -26 -9 6 -22 7 -29 3 -7 -5 -4 -10 11 -16 14 -5 21 -15 19
-25 -5 -25 -33 -28 -55 -6 -17 17 -53 20 -53 4 0 -3 7 -17 16 -29 26 -37 7
-38 -28 -2 -18 20 -33 29 -36 22 -2 -7 -10 -12 -17 -12 -7 0 -15 -5 -17 -11
-2 -6 -12 -1 -23 11 -16 18 -16 20 -2 14 13 -5 16 -2 11 10 -7 18 -20 21 -29
6 -3 -5 -15 -10 -26 -10 -24 0 -25 -17 -1 -24 9 -3 22 -17 29 -31 14 -30 9
-31 -17 -5 -11 11 -31 20 -44 20 -13 0 -35 9 -48 20 -14 10 -28 16 -32 12 -4
-3 -4 1 -1 10 4 9 0 18 -8 21 -15 5 -15 -9 -2 -55 4 -16 11 -28 16 -28 5 0 9
-4 9 -10 0 -5 -7 -7 -15 -4 -8 4 -15 12 -15 18 0 24 -47 128 -53 118 -8 -12
11 -72 23 -72 4 0 10 -9 13 -20 6 -23 -8 -27 -17 -5 -3 8 -9 15 -13 14 -29 -5
-35 2 -30 36 4 26 2 34 -6 29 -7 -3 -4 1 6 9 14 12 16 20 9 34 -7 12 -7 25 -1
36 13 22 -14 63 -48 71 -20 6 -24 11 -19 30 4 18 0 28 -18 39 -16 11 -23 25
-22 41 1 27 11 23 19 -9 4 -17 5 -17 6 4 1 15 -13 40 -36 65 -21 23 -53 64
-72 91 -33 47 -35 49 -41 26 -5 -23 -7 -21 -44 25 -57 71 -59 73 -52 42 5 -21
3 -28 -9 -28 -8 0 -15 3 -15 8 -1 4 -17 25 -37 47 -33 37 -35 38 -29 13 6 -26
5 -26 -20 -14 -14 8 -32 22 -40 32 -14 18 -15 18 -10 -6 4 -19 2 -17 -9 8 -15
32 -33 46 -21 17 12 -32 -12 -12 -43 35 -32 50 -51 63 -51 36 0 -17 -27 -29
-35 -15 -4 5 -3 18 0 29 5 14 2 20 -10 20 -18 0 -12 -39 14 -80 15 -25 15 -25
-6 -7 -12 10 -24 29 -27 43 -4 13 -13 24 -21 24 -8 0 -15 5 -15 11 0 8 -5 8
-15 -1 -12 -10 -15 -10 -15 2 0 16 -69 43 -101 41 -22 -2 -24 8 -7 25 8 8 8
12 1 12 -6 0 -13 6 -16 14 -4 9 4 13 24 14 16 0 29 -3 29 -7 0 -3 8 -7 18 -8
9 -1 34 -6 55 -11 49 -13 96 0 129 35 43 47 42 59 -4 54 -28 -2 -52 3 -77 17
-113 63 -318 53 -386 -18 -18 -19 -38 -30 -54 -29 -24 0 -24 1 -6 10 16 8 15
9 -10 5 -35 -5 -85 21 -85 44 0 8 -14 30 -30 49 -52 59 -63 138 -30 218 l20
48 -20 -25 c-46 -56 -52 -78 -45 -163 5 -55 4 -78 -3 -73 -6 4 -20 -3 -31 -15
l-20 -21 -7 61 c-4 34 -11 64 -15 67 -5 3 -6 10 -3 16 4 6 1 14 -6 18 -7 4
-14 24 -15 44 -2 21 1 34 6 30 6 -3 7 5 3 23 -4 15 -11 30 -16 31 -13 6 -9 32
5 32 15 0 17 117 2 128 -6 4 -11 18 -12 32 -3 47 -8 65 -21 73 -10 7 -10 12
-1 23 6 8 16 14 22 14 5 0 15 7 21 16 6 8 28 16 49 17 20 1 37 5 37 9 0 10 55
33 97 41 26 5 35 3 43 -14 8 -14 17 -18 32 -13 17 5 20 3 15 -10 -4 -9 -1 -16
6 -16 7 0 0 -8 -15 -18 -16 -9 -28 -23 -28 -30 0 -7 4 -11 9 -7 5 3 12 1 16
-5 4 -6 11 -8 16 -5 5 4 9 2 9 -4 0 -11 -32 -83 -40 -91 -8 -7 -29 -80 -24
-80 14 0 68 106 95 187 21 63 50 123 89 182 60 89 85 135 115 206 9 22 20 47
25 56 9 17 0 74 -21 128 -13 36 -55 80 -76 81 -6 0 -13 4 -15 9 -1 5 -22 12
-45 16 -35 5 -43 4 -43 -9 0 -8 -4 -17 -9 -20 -15 -9 -61 12 -61 28 0 9 -16
16 -45 20 -25 4 -45 13 -45 19 0 7 -16 27 -36 45 -32 30 -36 38 -31 70 l6 37
-19 -22 c-21 -26 -48 -29 -76 -8 -19 14 -19 14 3 15 19 0 22 5 20 40 l-1 40
-82 0 c-53 0 -85 -4 -92 -12z m488 -2273 c30 -4 65 -14 78 -21 12 -8 22 -11
22 -6 0 4 75 7 167 6 93 -2 187 1 209 5 34 7 51 4 92 -17 27 -13 55 -34 61
-46 10 -19 11 -19 6 7 -5 26 -4 27 15 15 22 -14 26 -28 9 -28 -6 0 -9 -9 -6
-20 3 -11 1 -20 -4 -20 -5 0 -9 -6 -9 -14 0 -8 -6 -17 -12 -20 -7 -3 -3 -3 9
-1 19 5 21 2 20 -35 -2 -43 -17 -57 -17 -15 0 14 -4 25 -10 25 -5 0 -18 8 -29
19 -18 18 -18 17 -13 -25 3 -29 1 -44 -7 -44 -6 0 -11 3 -12 8 -4 42 -10 66
-19 77 -10 12 -14 12 -26 0 -8 -7 -14 -20 -15 -27 0 -7 -4 -4 -9 7 -8 18 -9
18 -10 -5 -1 -25 -1 -25 -12 -3 -13 27 -65 48 -84 33 -8 -8 -14 -8 -19 0 -3 5
-11 10 -16 10 -6 0 -7 -4 -4 -10 3 -5 2 -10 -4 -10 -5 0 -13 5 -17 11 -3 6
-16 8 -29 5 -15 -4 -25 -1 -28 8 -4 9 -14 12 -28 9 -13 -4 -26 0 -33 8 -6 8
-22 15 -36 16 -14 0 -46 11 -72 22 -26 12 -51 21 -54 21 -4 -1 -11 4 -15 12
-7 10 -9 9 -9 -4 0 -15 -7 -17 -37 -14 -56 6 -67 10 -96 29 -25 16 -40 46 -17
32 6 -3 10 -2 10 4 0 5 12 8 28 6 15 -2 52 -6 82 -10z m2167 -1049 c-4 -9 2
-11 19 -8 30 6 51 -11 59 -49 4 -16 24 -84 46 -151 22 -66 38 -122 36 -124 -4
-5 -132 83 -147 101 -10 12 -11 18 -2 24 15 9 7 53 -13 67 -8 6 -15 23 -15 38
0 15 -8 36 -19 47 -11 12 -17 29 -14 42 10 47 11 49 34 37 11 -6 18 -17 16
-24z"/>
<path d="M4674 4366 c0 -25 4 -36 18 -39 10 -3 18 -14 18 -26 0 -12 5 -21 11
-21 8 0 8 -4 -1 -15 -6 -8 -9 -23 -5 -36 5 -16 4 -19 -6 -14 -9 6 -11 3 -6 -8
3 -10 2 -17 -2 -17 -5 0 -12 6 -14 13 -3 6 -6 -1 -6 -18 l-1 -30 -20 25 c-11
14 -20 32 -20 40 0 10 -3 11 -11 3 -8 -8 -7 -17 2 -34 7 -13 12 -29 11 -35 -1
-7 7 -14 18 -17 11 -3 20 0 20 6 0 7 5 4 11 -5 15 -26 20 -81 9 -98 -8 -13
-10 -13 -10 2 0 9 -11 30 -25 45 l-25 28 10 -27 c5 -15 7 -34 4 -42 -3 -8 5
-21 17 -30 13 -8 20 -19 16 -22 -4 -4 -2 -13 4 -21 9 -9 8 -13 0 -13 -6 0 -11
5 -11 11 0 6 -7 9 -15 5 -8 -3 -15 -1 -15 3 0 5 5 11 11 13 6 2 1 12 -10 22
-21 19 -21 19 -21 -2 0 -12 -4 -22 -10 -22 -5 0 -10 -9 -10 -19 0 -25 -10 -51
-20 -51 -5 0 -6 10 -2 22 4 17 2 20 -12 15 -13 -5 -15 -2 -10 20 6 22 4 25
-10 20 -9 -4 -15 -3 -12 1 3 5 6 32 7 60 3 50 11 66 22 39 3 -8 1 -20 -3 -27
-10 -15 -4 -30 11 -30 12 0 12 37 -2 61 -8 15 -7 24 2 35 10 13 10 17 -2 24
-9 6 -15 5 -18 -2 -2 -6 -12 0 -22 13 -15 20 -19 21 -19 7 0 -10 4 -18 9 -18
4 0 8 -35 8 -77 0 -43 -2 -68 -4 -55 -6 34 -20 26 -27 -15 -9 -57 -8 -66 9
-59 12 4 15 -3 15 -35 l0 -41 -20 23 -19 24 9 -35 c13 -44 12 -46 -2 -32 -18
18 -25 15 -33 -15 -7 -26 -8 -25 -26 27 l-18 55 3 -60 c2 -33 7 -68 11 -77 5
-12 2 -20 -8 -24 -13 -4 -14 -11 -6 -31 5 -14 12 -54 15 -89 5 -49 3 -67 -9
-79 -23 -23 -26 -19 -20 35 4 41 2 50 -11 50 -9 0 -16 7 -16 15 0 8 -4 15 -9
15 -5 0 -5 -18 1 -42 5 -24 7 -58 4 -75 -2 -18 0 -35 5 -38 5 -4 9 -13 9 -22
0 -12 -3 -13 -14 -4 -15 13 -32 -1 -22 -18 3 -5 8 -26 12 -47 5 -32 3 -37 -7
-26 -22 21 -26 14 -25 -50 1 -42 -3 -62 -10 -61 -7 1 -12 -8 -12 -20 -1 -12
-4 -37 -8 -56 -5 -26 -4 -32 6 -26 9 5 10 2 5 -14 -4 -13 -2 -21 5 -21 6 0 2
-13 -9 -29 -12 -16 -21 -35 -21 -43 0 -7 -9 -28 -20 -46 -15 -24 -19 -42 -14
-71 10 -64 15 -67 75 -37 46 23 65 26 148 26 95 0 129 8 117 28 -3 5 1 15 9
22 8 7 15 24 15 39 0 14 9 41 20 59 19 31 19 52 0 52 -5 0 -12 -9 -15 -20 -5
-15 -12 -19 -26 -15 -16 5 -19 1 -19 -24 0 -21 -5 -31 -16 -31 -13 0 -15 18
-13 132 1 73 6 148 10 167 20 95 38 190 44 226 8 48 52 194 66 215 5 8 17 32
26 53 9 20 22 37 30 37 7 0 13 9 13 19 0 10 7 21 15 25 8 3 15 13 15 22 0 10
5 14 15 10 12 -4 13 -2 6 13 -6 10 -17 23 -25 31 -9 7 -16 20 -16 30 0 10 -7
23 -15 30 -8 7 -15 19 -15 27 0 7 -8 26 -17 41 l-17 27 22 -19 c19 -17 22 -17
22 -3 0 28 15 19 33 -20 11 -26 13 -39 6 -44 -8 -4 -6 -10 4 -15 8 -5 17 -20
19 -33 4 -31 35 -52 47 -32 8 13 52 7 50 -7 -3 -21 7 -19 66 14 193 106 367
10 416 -231 8 -41 -15 -191 -32 -210 -5 -5 -9 -19 -9 -31 0 -12 -3 -24 -7 -26
-5 -1 -19 -25 -31 -53 -78 -166 -143 -274 -219 -364 -46 -54 -47 -56 -65 -77
-20 -23 -30 -22 210 -23 91 -1 120 -4 151 -20 44 -23 98 -81 117 -127 14 -34
17 -35 134 -54 36 -6 91 -17 124 -24 63 -14 49 -18 266 66 185 72 324 122 502
182 305 102 780 227 853 225 17 -1 55 2 85 5 54 7 57 6 124 -41 38 -27 71 -53
73 -59 5 -15 -52 -78 -64 -71 -10 7 -34 -13 -68 -57 -11 -14 -26 -25 -32 -26
-7 0 -13 -7 -13 -16 0 -25 -78 -53 -148 -52 -34 0 -68 -4 -75 -11 -21 -17
-168 -52 -191 -45 -12 3 -30 9 -41 13 -11 5 -33 14 -48 20 -17 7 -28 18 -26
29 1 9 1 26 0 37 -1 16 -3 17 -10 6 -5 -8 -7 -21 -4 -28 4 -9 0 -13 -8 -12 -8
2 -29 -1 -47 -5 -18 -4 -38 -4 -45 1 -16 12 -175 -28 -170 -43 2 -6 -16 -18
-39 -27 -115 -42 -352 -117 -368 -117 -10 0 -21 -4 -24 -9 -3 -4 -26 -14 -51
-21 -25 -7 -49 -18 -53 -25 -4 -7 -38 -15 -77 -18 -38 -4 -87 -11 -108 -17
-38 -11 -38 -12 -33 -51 20 -133 15 -122 50 -116 l31 5 -27 -11 c-16 -6 -28
-19 -28 -29 0 -22 -23 -24 -40 -3 -16 19 -26 19 -34 -1 -4 -11 1 -22 14 -31
11 -8 17 -19 14 -25 -4 -6 10 -25 30 -42 37 -31 41 -40 70 -166 7 -30 17 -64
23 -75 6 -11 13 -38 17 -60 9 -53 101 -323 138 -405 l29 -65 107 -52 c59 -28
136 -73 172 -100 58 -44 75 -52 155 -67 248 -48 443 -139 607 -283 42 -36 138
-83 221 -107 30 -9 81 -36 113 -60 33 -24 77 -53 99 -64 22 -12 61 -38 88 -58
l47 -36 0 1821 0 1821 -1476 0 c-1177 0 -1474 -3 -1468 -12 6 -10 4 -10 -7 0
-15 14 -67 16 -88 3 -13 -8 -13 -12 0 -27 13 -16 12 -16 -11 -4 -23 12 -24 12
-11 -3 13 -17 2 -25 -13 -9 -4 4 -13 7 -19 7 -7 0 -12 9 -12 19 0 35 -20 27
-21 -8z"/>
<path d="M2537 4143 c-11 -3 -16 -11 -13 -19 3 -7 1 -16 -4 -19 -12 -8 -2 -55
16 -76 8 -8 14 -25 14 -37 0 -12 5 -22 10 -22 6 0 10 -7 10 -17 0 -38 118
-158 165 -167 16 -4 45 -22 63 -40 18 -19 48 -41 66 -50 19 -9 36 -25 39 -36
6 -24 72 -54 96 -44 30 13 52 11 47 -3 -3 -8 -1 -11 4 -8 5 3 19 1 30 -5 17
-9 22 -7 29 13 5 13 17 31 26 40 15 16 15 17 -2 17 -10 0 -33 -4 -51 -9 -30
-9 -32 -8 -32 16 0 16 4 23 13 20 7 -2 39 -10 72 -17 51 -11 57 -14 42 -25
-16 -12 -24 -35 -11 -35 17 0 42 22 38 34 -6 15 58 42 75 32 5 -4 22 14 38 38
32 52 54 64 68 41 26 -44 33 -49 46 -39 8 6 25 9 39 8 97 -6 215 -2 226 9 10
10 -20 51 -47 64 -13 6 -61 16 -107 22 -119 15 -416 82 -454 102 -10 5 -29 9
-43 9 -16 0 -25 6 -25 15 0 10 -10 15 -26 15 -15 0 -45 5 -67 12 -32 10 -36
13 -21 19 11 4 30 8 44 8 14 1 38 8 54 16 19 10 32 12 36 6 6 -11 121 -24 198
-24 23 0 42 -4 42 -8 0 -5 14 -8 30 -7 17 1 30 6 30 10 0 5 9 4 21 -2 33 -18
144 -21 165 -5 17 13 17 16 4 25 -8 6 -35 9 -60 8 -40 -2 -45 0 -48 20 -3 18
-8 21 -28 16 -20 -5 -23 -3 -17 12 4 11 3 15 -5 10 -6 -3 -13 -2 -17 4 -10 15
-35 12 -35 -5 0 -8 9 -15 21 -15 11 0 17 -4 14 -10 -10 -16 -21 -12 -46 15
-31 33 -81 62 -73 41 8 -22 -25 -27 -53 -9 -19 13 -28 14 -31 5 -3 -9 -9 -9
-24 -1 -19 10 -83 8 -213 -8 -27 -4 -71 -6 -97 -4 -27 1 -48 -2 -48 -7 0 -5
-12 -12 -27 -15 -16 -3 -35 -8 -44 -12 -10 -4 -39 11 -77 40 -34 25 -63 44
-65 44 -1 -1 -10 -3 -20 -6z"/>
<path d="M5087 3910 c-70 -27 -192 -125 -244 -196 -48 -65 -59 -74 -106 -80
-16 -2 -33 -6 -38 -9 -14 -9 -11 -35 6 -41 9 -4 15 -20 15 -43 0 -41 20 -105
35 -111 6 -3 14 10 20 29 9 31 12 33 45 27 85 -15 159 -32 166 -38 16 -17 44
-7 50 16 9 37 -38 100 -89 120 -24 9 -58 30 -77 46 l-35 30 35 31 c19 17 58
42 85 55 28 13 70 35 95 50 74 42 126 34 162 -24 22 -36 54 -72 63 -72 3 0 5
26 5 58 -1 78 -29 138 -74 157 -45 19 -60 18 -119 -5z"/>
<path d="M4976 2843 c-12 -12 -36 -74 -36 -92 0 -9 20 -49 45 -89 25 -40 45
-75 45 -80 1 -12 114 -154 132 -166 27 -17 33 1 13 43 -14 32 -15 45 -6 74 10
29 8 43 -9 88 -33 85 -99 187 -135 209 -36 22 -39 23 -49 13z"/>
<path d="M6188 977 c-5 -10 -8 -32 -8 -49 0 -36 -34 -232 -57 -328 -3 -14 -16
-37 -29 -51 -14 -14 -21 -28 -18 -32 4 -4 0 -15 -9 -25 -9 -10 -17 -33 -18
-52 -5 -95 -37 -266 -59 -315 -21 -47 -50 -118 -50 -121 0 -2 11 -4 24 -4 21
0 27 9 45 67 11 38 29 106 40 153 11 47 32 118 46 158 37 105 83 302 95 412
12 102 10 218 -2 187z"/>
</g>
</svg>
