<?xml version="1.0" standalone="no"?>
<svg version="1.0" xmlns="http://www.w3.org/2000/svg"
 width="50px" height="50px" viewBox="0 0 348.000000 478.000000"
 preserveAspectRatio="xMidYMid meet">
<g transform="translate(0.000000,478.000000) scale(0.100000,-0.100000)"
fill="#000000" stroke="none">
<path d="M1985 4764 c-22 -2 -76 -9 -120 -16 -44 -7 -147 -13 -230 -13 -114
-1 -174 -7 -250 -23 -370 -81 -746 -258 -901 -425 -69 -74 -99 -127 -156 -274
-42 -108 -42 -108 -45 -258 -1 -82 -5 -194 -8 -247 -13 -188 76 -599 202 -942
98 -264 122 -333 137 -386 19 -68 56 -283 56 -329 0 -28 2 -32 15 -21 53 44
241 438 365 765 l11 29 42 -48 c69 -82 218 -205 291 -241 88 -45 147 -47 217
-8 39 21 49 31 49 52 0 15 -4 21 -8 15 -15 -23 -73 -44 -120 -44 -173 0 -377
251 -411 505 -21 155 28 308 117 370 86 59 205 31 286 -68 19 -23 44 -53 56
-67 l21 -25 -4 28 c-3 22 -1 27 12 23 9 -3 42 -12 73 -21 87 -25 121 -52 136
-110 15 -59 12 -106 -29 -477 -33 -299 -39 -333 -110 -608 -66 -251 -71 -277
-63 -322 13 -79 117 -200 362 -417 45 -41 82 -79 82 -86 0 -7 -14 -57 -31
-111 -17 -55 -35 -126 -39 -159 -5 -33 -16 -111 -25 -174 -24 -164 -10 -199
22 -56 27 120 85 284 130 367 27 51 30 53 68 52 31 0 93 -27 250 -105 270
-135 361 -163 530 -163 104 0 130 3 193 26 90 33 181 86 194 114 7 16 3 43
-17 105 -49 154 -55 210 -55 502 0 269 0 273 -25 325 -14 30 -25 58 -25 63 0
5 20 14 45 20 64 16 69 26 56 102 -17 99 -38 160 -70 204 l-30 41 44 11 c24 6
55 11 69 11 41 0 55 10 90 69 58 94 57 96 -22 229 -156 262 -202 357 -202 416
0 28 10 46 45 86 31 35 45 60 45 79 0 80 -68 371 -145 624 -19 62 -35 121 -35
131 0 10 29 73 64 140 96 182 126 299 92 364 -75 143 -455 310 -821 362 -83
11 -400 21 -470 14z m571 -127 c118 -43 217 -99 249 -141 23 -30 45 -96 32
-96 -3 0 -19 23 -36 50 -17 28 -38 50 -47 50 -11 0 -14 -5 -9 -17 12 -33 35
-154 35 -189 0 -59 -17 -37 -23 31 -6 67 -34 144 -65 178 -28 32 -113 92 -180
127 -58 30 -72 40 -54 40 4 0 48 -15 98 -33z m-31 -602 c170 -28 396 -101 501
-162 48 -27 53 -38 93 -198 17 -66 53 -194 81 -284 27 -90 50 -176 50 -191 0
-15 -13 -57 -30 -92 -73 -157 -44 -290 117 -538 94 -143 100 -161 76 -202 -10
-18 -31 -39 -45 -48 -25 -13 -29 -13 -51 9 -35 32 -83 40 -222 41 -135 0 -145
4 -145 59 -1 34 -2 35 -15 17 -25 -33 -17 -64 26 -111 40 -43 44 -65 12 -65
-40 0 -98 -27 -133 -63 -47 -47 -98 -149 -135 -269 -15 -49 -31 -88 -35 -88
-13 0 -29 59 -40 154 -14 117 -35 145 -239 325 -172 152 -241 224 -274 285
-20 37 -22 55 -21 186 2 139 15 246 51 410 14 64 22 81 57 116 23 22 96 73
164 113 102 60 128 80 152 118 60 94 64 157 14 234 -63 97 -144 196 -183 223
-22 16 -41 30 -41 32 0 9 134 2 215 -11z"/>
<path d="M2693 3223 c-68 -36 -123 -69 -123 -73 0 -4 48 2 108 12 165 29 276
13 359 -52 37 -29 86 -26 122 8 39 35 45 68 13 64 -17 -3 -25 2 -29 17 -4 16
-24 27 -87 46 -202 61 -211 60 -363 -22z"/>
<path d="M2791 3074 c-55 -15 -81 -29 -81 -45 0 -12 148 -97 182 -104 16 -4
32 -14 35 -22 10 -25 22 7 16 43 -5 29 -1 35 45 70 75 57 67 69 -48 71 -59 1
-116 -4 -149 -13z"/>
<path d="M1251 3141 c-43 -43 -72 -117 -70 -180 1 -34 2 -32 19 22 47 150 137
189 206 88 36 -54 32 -86 -22 -143 -90 -97 -94 -158 -13 -243 72 -77 198 -133
238 -106 28 18 16 64 -28 101 -28 25 -41 43 -41 62 0 14 -8 36 -18 49 -16 19
-18 36 -14 118 4 85 2 103 -18 150 -31 71 -95 121 -156 121 -38 0 -50 -6 -83
-39z"/>
<path d="M501 1639 c-35 -14 -46 -30 -118 -179 -36 -74 -79 -154 -95 -178 -32
-47 -33 -47 50 -57 151 -17 375 -113 535 -228 120 -87 263 -211 447 -390 271
-263 431 -401 585 -504 89 -60 175 -106 175 -94 0 5 -38 54 -85 108 -90 103
-170 218 -275 393 -110 183 -226 352 -313 455 -187 222 -423 414 -697 567 -87
49 -116 70 -120 88 -7 28 -47 37 -89 19z"/>
<path d="M205 1075 c-69 -27 -195 -88 -195 -95 0 -4 17 -10 37 -13 306 -47
377 -69 613 -186 178 -89 314 -177 624 -405 119 -87 176 -123 176 -110 0 13
-233 244 -340 338 -406 356 -750 533 -915 471z"/>
</g>
</svg>
