<?xml version="1.0" standalone="no"?>
<svg version="1.0" xmlns="http://www.w3.org/2000/svg"
 width="50px" height="50px" viewBox="0 0 900.000000 1319.000000"
 preserveAspectRatio="xMidYMid meet">

<g transform="translate(0.000000,1319.000000) scale(0.100000,-0.100000)"
fill="#000000" stroke="none">
<path d="M3855 13180 c-375 -43 -725 -190 -1040 -438 -94 -74 -362 -344 -464
-467 -177 -214 -299 -428 -328 -575 -15 -72 -14 -83 1 -130 l17 -51 -69 -77
c-281 -314 -416 -607 -473 -1032 -21 -157 -17 -414 9 -558 40 -218 116 -487
235 -827 42 -122 47 -143 63 -325 23 -243 26 -838 6 -1030 -38 -360 -97 -616
-199 -870 -108 -267 -128 -393 -127 -805 1 -448 46 -852 169 -1530 115 -633
375 -1713 505 -2105 318 -952 782 -1652 1349 -2032 118 -79 325 -183 452 -227
277 -95 645 -126 909 -76 253 49 503 165 740 343 103 78 339 315 439 442 94
118 261 368 339 506 144 254 321 652 430 964 162 464 394 1407 537 2185 125
682 169 1082 169 1545 0 284 -2 328 -22 442 -25 141 -45 203 -121 387 -194
471 -341 1202 -391 1946 -6 94 -12 190 -14 215 -2 25 9 122 25 215 45 279 78
570 82 735 12 509 -87 1077 -268 1540 -29 74 -58 153 -65 175 -83 264 -408
590 -855 857 -119 71 -349 189 -361 184 -6 -2 -15 -1 -20 4 -11 9 -392 217
-584 318 -121 63 -148 73 -260 96 -69 14 -172 32 -230 41 -124 19 -471 28
-585 15z m-281 -154 c-229 -115 -394 -329 -478 -618 -28 -96 -56 -267 -57
-349 -1 -49 -2 -51 -10 -24 -11 36 -14 281 -4 351 14 101 48 212 91 303 83
171 238 299 434 358 114 34 121 27 24 -21z m616 -6 c-351 -75 -613 -297 -730
-619 -26 -70 -45 -142 -64 -241 -3 -14 -3 11 -1 55 6 151 55 329 120 437 19
32 31 58 27 58 -4 0 -30 -19 -59 -43 -67 -55 -132 -139 -167 -216 -15 -33 -29
-61 -31 -61 -8 0 29 108 55 162 126 254 354 409 688 467 59 11 139 19 177 19
l70 1 -85 -19z m320 -66 c-144 -18 -218 -38 -335 -94 -123 -58 -237 -142 -334
-245 -68 -74 -72 -76 -57 -40 25 59 75 134 126 189 141 152 355 222 630 207
l75 -4 -105 -13z m516 -183 c149 -30 318 -92 502 -182 165 -81 221 -120 77
-53 -181 84 -413 144 -630 164 -210 20 -446 -16 -628 -94 -44 -20 -82 -34 -84
-33 -1 2 19 24 45 50 161 158 414 210 718 148z m-2102 -64 c-74 -55 -179 -168
-222 -240 -58 -96 -104 -216 -126 -326 l-21 -106 -7 50 c-4 28 -9 87 -10 132
-2 76 -3 81 -20 72 -59 -32 -225 -235 -317 -387 -24 -39 -45 -72 -47 -72 -8 0
42 103 97 201 159 280 366 500 621 662 107 67 134 75 52 14z m2369 -736 c386
-80 692 -303 865 -629 25 -48 51 -91 57 -97 58 -51 154 -212 229 -385 83 -192
258 -721 243 -736 -2 -3 -85 0 -183 7 -620 41 -1377 -67 -1992 -283 l-116 -41
-131 31 c-193 46 -414 83 -635 106 -446 47 -1158 31 -1593 -35 -38 -6 -70 -9
-72 -7 -4 4 57 308 140 688 36 168 82 383 100 477 48 238 86 344 168 470 148
228 383 372 701 430 62 11 146 16 266 16 167 0 179 -1 270 -31 187 -60 302
-74 585 -74 278 1 514 35 725 106 60 21 242 14 373 -13z m-2873 -309 c-67 -46
-124 -97 -161 -145 -50 -62 -105 -172 -114 -228 -6 -34 -10 -39 -34 -39 -74 0
-254 -136 -363 -273 -21 -27 -38 -44 -38 -37 0 22 86 185 140 265 29 44 98
125 154 180 108 107 205 179 338 250 83 45 125 59 78 27z m3825 -1691 c103
-27 216 -83 251 -124 15 -17 40 -59 56 -93 71 -152 76 -343 13 -594 -42 -171
-89 -317 -121 -382 -35 -69 -127 -127 -294 -185 -128 -45 -210 -58 -355 -57
-146 2 -232 17 -363 67 -148 55 -213 97 -282 183 -138 172 -235 348 -286 519
-24 78 -28 109 -28 227 -1 136 -1 136 29 179 70 100 193 161 411 203 344 68
505 86 724 81 125 -3 184 -9 245 -24z m593 -63 c38 -11 40 -20 8 -42 -47 -30
-113 -38 -172 -21 -30 9 -54 20 -54 25 0 13 58 42 100 50 37 8 63 5 118 -12z
m-3473 -48 c66 -6 183 -20 260 -31 217 -31 272 -67 338 -222 43 -100 44 -209
4 -352 -95 -336 -173 -510 -271 -609 -121 -122 -336 -203 -586 -221 -232 -16
-600 72 -682 163 -118 131 -194 399 -205 727 -8 250 22 343 136 424 98 68 220
110 381 131 79 11 459 4 625 -10z m-1217 -156 l37 -15 -24 -19 c-28 -21 -87
-40 -123 -40 -36 0 -119 30 -112 41 3 5 22 18 42 29 46 24 129 26 180 4z
m2387 -193 c22 -10 48 -27 57 -37 9 -10 57 -123 107 -249 98 -249 155 -356
271 -508 67 -88 80 -99 165 -146 168 -94 331 -149 503 -172 107 -14 320 -7
422 15 196 42 398 132 460 204 84 99 165 298 213 523 22 105 24 111 30 74 30
-181 45 -766 28 -1065 -18 -321 -61 -663 -97 -775 -27 -82 -76 -166 -131 -222
-62 -64 -172 -120 -253 -129 -54 -5 -57 -4 -165 61 -425 255 -913 408 -1426
447 -127 9 -185 9 -272 -1 -492 -54 -1108 -248 -1517 -476 -111 -61 -121 -65
-181 -65 -93 0 -190 24 -283 69 -149 72 -245 198 -281 368 -9 43 -25 105 -36
138 -58 185 -117 494 -148 778 -25 229 -45 649 -38 788 4 58 3 110 -1 115 -4
5 -5 52 -2 104 l5 95 31 -75 c37 -89 80 -250 89 -337 15 -151 109 -381 202
-498 76 -95 245 -181 447 -228 131 -30 388 -30 532 1 215 46 482 162 577 250
67 63 135 168 185 288 22 55 71 170 107 258 36 87 80 199 97 250 17 51 41 103
56 118 51 55 171 74 247 39z m220 -2606 c388 -50 679 -147 729 -244 23 -44 20
-117 -7 -176 -30 -64 -118 -145 -205 -187 -65 -32 -70 -33 -197 -33 -162 1
-231 17 -385 93 -105 52 -120 56 -181 56 -57 -1 -80 -7 -146 -39 -179 -86
-289 -115 -439 -115 -216 0 -414 158 -414 330 0 47 5 61 29 91 80 96 336 177
727 229 167 22 293 21 489 -5z"/>
</g>
</svg>
