<?xml version="1.0" standalone="no"?>
<svg version="1.0" xmlns="http://www.w3.org/2000/svg"
 width="50px" height="50px" viewBox="0 0 320.000000 400.000000"
 preserveAspectRatio="xMidYMid meet">
<g transform="translate(0.000000,400.000000) scale(0.100000,-0.100000)"
fill="#000000" stroke="none">
<path d="M1425 3743 c-203 -9 -501 -138 -635 -273 -55 -56 -88 -103 -82 -118
3 -9 1 -13 -5 -9 -6 4 -16 -7 -23 -23 -7 -17 -17 -30 -23 -30 -6 0 -2 -7 9
-16 13 -11 14 -14 3 -11 -21 7 -62 -101 -48 -126 8 -13 6 -15 -6 -11 -13 5
-14 2 -5 -20 7 -19 6 -25 -2 -23 -8 1 -12 -25 -12 -85 -1 -49 1 -83 2 -78 2 6
10 10 18 10 8 0 14 8 14 18 0 14 -2 15 -10 2 -5 -8 -10 -10 -10 -4 0 14 21 34
37 34 9 0 11 -8 7 -25 -5 -22 -3 -25 21 -25 23 0 25 -3 19 -22 -4 -13 -7 -31
-6 -40 0 -10 -3 -18 -9 -18 -5 0 -9 -7 -9 -15 0 -18 16 -20 23 -2 3 7 6 5 6
-5 1 -10 5 -18 11 -18 5 0 6 -7 3 -17 -5 -11 -3 -14 6 -8 11 6 11 3 1 -16 -7
-13 -9 -21 -5 -17 5 4 14 3 21 -3 7 -6 18 -8 25 -4 8 6 7 10 -2 17 -10 7 -6 8
13 4 15 -3 38 -2 53 4 14 5 24 6 21 1 -3 -5 3 -11 14 -14 22 -6 28 8 8 16 -8
3 -6 6 5 6 9 1 17 6 17 11 0 10 -14 14 -37 11 -15 -2 -15 -4 -4 37 11 36 5 41
-15 15 -10 -15 -15 -16 -25 -5 -11 10 -10 12 0 12 8 0 11 7 8 20 -5 20 3 26
17 13 4 -4 23 -8 42 -10 29 -2 35 1 30 13 -3 9 -6 18 -6 20 0 10 -29 3 -34 -8
-3 -9 -9 -7 -20 6 -26 33 -19 39 34 32 31 -4 50 -3 50 3 0 6 6 8 14 5 8 -3 17
-1 20 4 3 5 -2 9 -11 8 -12 -1 -21 10 -27 37 -5 20 -13 37 -17 37 -4 0 -5 9
-2 20 6 24 23 27 23 4 0 -14 3 -14 15 -4 8 7 15 20 15 29 0 14 -2 14 -10 1 -5
-8 -12 -11 -16 -7 -4 4 0 15 9 25 10 10 17 24 17 30 0 7 7 12 15 12 9 0 15 6
13 13 -3 20 12 57 25 58 7 1 -1 4 -18 8 -42 9 -44 37 -6 72 35 31 40 44 14 35
-16 -5 -15 -4 1 9 10 8 23 12 27 9 5 -3 9 1 9 10 0 8 -6 17 -12 19 -8 3 -6 6
4 6 12 1 16 7 12 19 -5 13 -4 14 4 3 8 -11 14 -11 33 4 20 15 21 16 4 11 l-20
-6 20 15 c11 9 28 14 37 12 24 -7 36 12 33 51 -2 17 1 32 6 32 4 0 18 10 29
22 17 19 22 20 30 8 5 -8 12 -12 15 -8 4 3 -2 15 -13 26 -11 11 -18 23 -14 26
6 7 52 -41 52 -54 0 -13 -28 -31 -34 -22 -3 5 -17 7 -31 5 -13 -3 -22 -9 -19
-14 3 -5 8 -7 12 -5 4 2 7 -9 8 -25 1 -15 -3 -26 -7 -23 -5 3 -6 -2 -3 -10 3
-9 10 -16 16 -16 5 0 6 5 3 10 -3 6 -2 10 4 10 5 0 22 11 37 25 18 17 34 23
47 19 13 -4 17 -2 13 5 -5 8 0 8 19 1 24 -9 26 -8 20 11 -5 13 -2 25 6 30 21
13 3 22 -19 10 -47 -25 -89 2 -44 28 16 10 16 10 0 11 -10 0 -18 7 -18 15 0
18 16 20 23 3 3 -7 6 -4 6 7 1 15 4 16 13 7 7 -7 20 -12 31 -12 10 0 16 -4 13
-8 -3 -5 1 -9 9 -9 8 0 15 10 16 21 0 12 3 15 6 9 2 -7 12 -13 22 -13 9 0 22
-12 29 -27 9 -23 10 -23 5 -4 -4 19 -2 23 11 18 9 -4 16 -2 16 3 0 6 5 10 11
10 6 0 9 -6 6 -14 -4 -9 0 -12 13 -9 11 3 16 11 13 19 -6 16 13 19 22 3 4 -6
24 -9 46 -6 25 3 39 0 39 -7 0 -7 4 -6 9 2 4 7 17 15 27 16 10 2 18 9 17 15
-4 17 17 13 23 -4 10 -25 28 -17 51 23 13 22 22 30 23 20 0 -9 -4 -20 -10 -23
-5 -3 -10 -10 -10 -16 0 -5 5 -9 10 -9 6 0 10 6 10 14 0 7 7 19 15 26 8 7 15
8 15 2 0 -5 12 -9 26 -9 15 0 29 -5 33 -10 6 -10 45 -33 56 -33 3 0 3 5 0 10
-9 15 8 12 33 -6 13 -9 25 -14 28 -11 15 14 -186 103 -212 93 -8 -3 -13 -2
-10 3 11 17 -204 39 -329 34z"/>
<path d="M1829 2241 c-36 -9 -78 -25 -93 -34 -33 -22 -66 -74 -66 -105 0 -21
3 -23 30 -17 26 6 30 4 30 -14 0 -26 5 -26 28 -3 9 9 16 26 14 36 -6 31 15 42
38 21 14 -13 24 -16 28 -8 4 6 23 13 42 16 l35 6 -32 -11 c-34 -11 -44 -28
-17 -28 25 0 74 56 74 84 l0 25 47 -16 c35 -12 50 -13 64 -4 10 6 26 11 36 11
26 0 4 15 -47 33 -70 24 -138 27 -211 8z"/>
<path d="M875 2119 c-46 -43 -56 -77 -20 -71 16 3 17 1 7 -11 -11 -12 -8 -19
14 -36 26 -20 27 -28 13 -80 -6 -22 41 -42 89 -39 23 2 42 0 42 -4 0 -3 14 -9
31 -13 20 -5 34 -16 40 -32 9 -24 12 -25 82 -22 l72 4 55 57 c79 82 80 84 80
120 0 44 -19 70 -69 93 -22 11 -41 23 -41 28 0 4 -7 7 -16 7 -8 0 -25 5 -37
12 -12 6 -37 12 -57 14 -19 1 -81 5 -137 9 l-102 7 -46 -43z"/>
<path d="M2616 2071 c-17 -40 -89 -111 -112 -111 -21 0 -24 -41 -17 -275 5
-197 3 -244 -12 -330 -28 -153 -99 -336 -153 -390 -48 -49 -81 -75 -97 -75 -9
0 -28 -8 -42 -17 -15 -10 -24 -12 -20 -5 5 6 4 12 -1 12 -6 0 -13 -7 -16 -16
-3 -8 -10 -13 -15 -10 -5 4 -22 2 -38 -4 l-28 -10 30 25 c25 21 26 24 7 18
-15 -3 -22 -1 -22 8 0 11 -2 11 -9 0 -7 -11 -13 -12 -23 -3 -10 8 -27 5 -68
-12 -30 -13 -86 -31 -125 -40 -147 -34 -234 0 -450 176 -77 62 -158 127 -180
143 -22 17 -44 36 -48 43 -5 7 -13 9 -19 6 -6 -4 -8 -3 -5 3 4 6 -5 21 -18 33
l-25 23 0 -48 c0 -37 7 -60 31 -97 17 -26 33 -48 36 -48 10 0 -2 66 -16 83
-14 17 -6 22 23 11 9 -3 16 -17 16 -31 0 -14 4 -22 10 -18 6 4 8 11 5 16 -4 5
5 4 18 -2 38 -17 178 -276 192 -354 3 -22 13 -62 21 -90 7 -27 23 -83 34 -122
12 -40 25 -73 30 -73 6 0 10 5 10 10 0 18 39 10 50 -10 6 -11 15 -20 21 -20 6
0 7 5 3 12 -4 7 -9 23 -10 36 -2 17 1 22 12 18 8 -3 17 1 20 9 4 8 11 15 16
15 6 0 8 -7 5 -15 -10 -24 13 -28 32 -7 9 12 30 22 46 24 25 3 30 -1 36 -27 6
-25 7 -26 8 -6 1 17 5 21 17 17 9 -3 20 -6 25 -6 6 0 9 -8 7 -17 -2 -13 7 -19
41 -25 25 -4 49 -13 55 -19 8 -9 4 -10 -17 -5 -19 4 -26 3 -22 -4 3 -5 12 -10
19 -10 7 0 23 -9 36 -20 23 -20 34 -24 59 -20 8 1 18 -4 23 -12 7 -9 8 -4 3
15 -4 19 -2 26 5 22 5 -3 14 2 18 12 4 10 13 19 20 21 10 2 10 -3 2 -20 -10
-21 -10 -21 9 2 11 14 23 37 26 52 4 15 14 37 24 50 25 32 46 81 71 163 26 90
53 133 91 149 29 12 56 46 264 321 29 39 57 86 63 105 7 19 18 112 27 205 9
94 20 195 25 225 5 30 10 127 12 215 3 137 1 160 -12 163 -10 2 -22 -12 -34
-37z"/>
<path d="M1855 1293 c-71 -9 -135 -25 -135 -34 0 -5 -30 -9 -66 -9 -64 0 -101
-12 -145 -48 -14 -11 -21 -9 -44 12 l-28 26 -18 -23 c-10 -12 -23 -28 -29 -34
-15 -18 -31 -63 -22 -64 40 -6 62 -7 58 -1 -3 4 9 14 26 21 44 20 78 0 78 -46
0 -19 -5 -43 -10 -54 -8 -14 -7 -23 2 -33 22 -22 165 4 183 33 3 6 13 11 21
11 28 0 103 40 114 61 15 27 -5 55 -26 38 -8 -6 -14 -8 -14 -4 0 4 -6 3 -12
-3 -25 -20 -185 -12 -172 9 3 5 0 9 -5 9 -6 0 -11 4 -11 8 0 10 120 33 132 26
5 -3 17 1 26 9 28 24 106 64 140 72 18 3 34 11 37 16 6 9 -21 10 -80 2z"/>
<path d="M1642 463 c-14 -17 -26 -24 -38 -19 -19 7 -84 -13 -84 -27 0 -4 4 -6
9 -3 5 3 14 -1 20 -8 9 -11 9 -19 1 -33 -10 -15 -3 -53 32 -193 l43 -175 110
-3 110 -3 12 62 c8 43 9 68 2 82 -6 10 -8 21 -6 24 3 2 8 -5 12 -16 3 -12 11
-19 16 -15 6 3 8 13 5 21 -3 8 -1 11 4 8 13 -8 13 7 -2 42 -6 15 -10 33 -9 38
2 6 4 25 6 43 2 28 -1 32 -21 32 -27 0 -30 10 -12 28 10 10 10 15 -2 22 -11 7
-16 4 -18 -10 -4 -24 -22 -27 -22 -4 0 9 -10 25 -22 35 -23 21 -32 24 -23 9 3
-5 3 -15 -1 -22 -5 -8 -10 -6 -19 5 -6 8 -27 17 -46 19 -30 3 -34 6 -35 33 0
17 4 33 9 36 6 4 5 9 0 12 -6 4 -19 -5 -31 -20z"/>
</g>
</svg>
