<?xml version="1.0" standalone="no"?>
<svg version="1.0" xmlns="http://www.w3.org/2000/svg"
 width="80px" height="80px" viewBox="0 0 800.000000 800.000000"
 preserveAspectRatio="xMidYMid meet">
<g transform="translate(0.000000,800.000000) scale(0.100000,-0.100000)"
fill="#000000" stroke="none">
<path d="M3650 7095 l-285 -286 -40 44 c-81 90 -138 211 -168 362 -12 60 -17
71 -39 79 -14 5 -34 6 -43 2 -16 -6 -17 -18 -11 -129 9 -178 50 -344 114 -462
l29 -53 -197 -197 -197 -197 -210 229 c-116 125 -244 264 -285 307 l-74 80
-18 -39 c-28 -58 -18 -183 24 -300 37 -106 144 -322 224 -453 31 -51 56 -96
56 -100 0 -4 -400 -408 -890 -897 -490 -489 -890 -894 -890 -900 0 -6 148
-158 329 -339 330 -330 359 -354 369 -302 3 14 -82 105 -307 330 l-311 311
870 870 c478 478 871 867 873 865 23 -29 149 -221 146 -223 -2 -2 -84 -61
-183 -132 -548 -394 -1089 -861 -1224 -1058 -43 -64 -47 -74 -50 -142 -7 -138
72 -365 139 -398 19 -10 47 -27 62 -40 27 -20 39 -22 175 -22 207 0 187 -13
467 300 204 229 621 648 838 843 l158 143 137 -170 c75 -93 183 -223 239 -289
l102 -120 -22 -19 c-73 -66 -300 -200 -542 -321 -293 -146 -364 -187 -575
-327 -102 -67 -205 -130 -230 -139 -25 -9 -101 -27 -170 -40 -150 -29 -238
-61 -328 -119 -175 -114 -305 -282 -371 -482 -37 -112 -47 -203 -31 -281 23
-113 77 -176 186 -216 87 -32 253 -30 387 5 117 31 259 97 344 160 76 57 155
166 185 256 19 59 22 85 20 240 -3 256 22 330 157 468 194 196 453 306 757
320 174 8 335 -20 451 -80 31 -16 31 -16 43 13 20 48 8 183 -23 259 l-26 63
138 -143 c76 -80 159 -162 185 -183 l47 -38 57 25 c116 52 174 62 362 61 192
0 259 -12 431 -74 194 -70 385 -227 456 -375 l38 -80 0 -205 c0 -189 2 -210
23 -273 70 -202 246 -339 530 -414 124 -32 299 -36 376 -9 141 51 199 139 198
301 -1 273 -208 588 -472 720 -85 42 -141 59 -278 85 -140 26 -191 46 -295
114 -120 79 -301 187 -413 247 -176 93 -437 241 -524 297 -119 76 -240 164
-240 174 0 4 50 65 111 136 61 70 113 133 116 139 4 11 -23 60 -96 172 -8 13
82 -73 200 -191 357 -357 771 -683 1184 -933 151 -91 409 -217 436 -213 20 3
24 12 35 73 23 136 105 307 191 397 33 34 35 39 28 85 -13 94 -25 106 -196
192 -253 127 -463 268 -680 457 -100 87 -458 447 -542 547 l-49 56 44 58 c25
32 78 105 118 163 41 58 75 107 77 110 2 2 379 -371 838 -830 l835 -835 -316
-316 c-174 -175 -314 -323 -312 -330 2 -7 12 -17 21 -23 14 -9 69 41 352 324
184 184 335 339 335 345 0 5 -385 395 -856 866 l-857 857 65 103 c259 415 359
683 304 814 l-17 40 -134 -140 c-73 -77 -212 -224 -307 -326 -95 -103 -180
-190 -188 -193 -10 -5 -195 174 -605 584 -324 324 -595 590 -600 590 -6 0
-138 -128 -295 -285z m1357 -1048 c-51 -54 -111 -119 -133 -145 l-42 -47 -23
20 c-13 11 -55 50 -94 86 -130 124 -322 278 -427 344 -35 22 -48 36 -48 54 0
46 -25 105 -57 138 -28 27 -41 33 -78 33 -25 0 -68 -10 -99 -24 l-55 -25 -124
54 c-171 73 -238 108 -336 172 l-83 56 268 268 269 269 577 -577 577 -577 -92
-99z m-1877 1175 c31 -159 87 -291 165 -386 24 -30 41 -58 36 -60 -9 -6 -51
37 -99 99 l-24 30 23 -40 c12 -22 35 -56 50 -76 l28 -36 -28 -27 -29 -28 -25
44 c-65 110 -112 261 -127 412 -10 100 -7 141 10 131 5 -3 14 -31 20 -63z
m-596 -697 c101 -110 183 -202 181 -203 -2 -2 -35 3 -74 12 -145 33 -134 18
44 -58 72 -31 138 -66 148 -79 11 -12 40 -44 66 -72 26 -27 137 -151 246 -275
230 -259 540 -600 708 -779 64 -68 114 -127 112 -132 -3 -4 -31 -13 -63 -20
-73 -15 -180 -1 -272 36 -94 39 -241 140 -346 238 -97 91 -204 216 -204 237 0
17 58 7 201 -35 123 -37 174 -45 129 -21 -14 8 -92 40 -175 71 -231 89 -252
101 -348 209 -317 356 -606 862 -624 1091 l-5 70 46 -45 c25 -25 128 -135 230
-245z m1051 40 c83 -39 158 -75 168 -78 18 -7 22 -24 9 -43 -24 -36 -122 -45
-188 -18 -67 28 -175 103 -232 161 l-54 55 33 34 32 33 41 -36 c23 -19 109
-68 191 -108z m-126 -174 c36 -26 88 -61 114 -76 l49 -28 -67 -41 c-36 -23
-156 -98 -265 -167 l-199 -126 -78 86 c-44 47 -97 105 -118 129 l-39 43 193
193 193 193 76 -78 c41 -44 105 -101 141 -128z m708 100 c37 -36 53 -90 53
-174 0 -109 -16 -135 -139 -224 -128 -94 -407 -306 -551 -419 -57 -46 -106
-81 -109 -78 -2 2 -2 6 0 7 47 40 241 192 322 252 124 93 132 108 125 224 -6
86 -27 155 -69 224 -16 26 -29 49 -29 52 0 8 195 119 250 142 76 31 112 30
147 -6z m214 -283 c154 -114 407 -365 689 -683 112 -126 253 -284 314 -350 95
-104 99 -110 32 -45 -43 41 -193 199 -334 350 -288 310 -498 526 -557 573 -21
18 -36 26 -31 19 4 -7 1 -14 -8 -18 -10 -4 -39 16 -83 56 -38 35 -89 79 -115
98 -37 28 -48 43 -48 64 0 15 4 28 9 28 5 0 64 -41 132 -92z m-1853 -104 c341
-530 1005 -1340 1486 -1813 143 -140 170 -162 190 -157 145 36 522 32 678 -8
86 -22 268 -96 268 -110 0 -3 -32 8 -70 24 -260 107 -578 122 -847 39 l-66
-21 -79 79 c-420 415 -963 1062 -1315 1568 -126 180 -340 523 -309 494 4 -3
32 -46 64 -95z m1711 -9 c85 -50 201 -145 236 -193 31 -44 45 -52 45 -28 0 48
67 14 103 -52 42 -77 31 -155 -18 -135 -15 5 -17 3 -11 -13 5 -10 11 -59 13
-107 l6 -88 17 38 c42 91 116 163 168 163 13 0 36 -7 52 -15 16 -8 129 -124
251 -257 353 -385 493 -518 735 -700 211 -160 467 -311 633 -374 60 -23 76
-35 89 -60 14 -31 14 -32 -28 -85 -76 -97 -145 -263 -158 -383 -6 -53 -10 -61
-30 -64 -24 -4 -207 80 -337 155 -463 266 -1124 823 -1481 1247 l-58 69 19 31
c92 152 117 255 92 374 -9 41 -33 104 -53 141 -48 85 -192 230 -301 301 -54
36 -78 57 -70 62 18 12 21 11 86 -27z m-50 -87 c170 -104 333 -303 347 -424 4
-39 4 -40 -211 -259 -214 -218 -216 -220 -211 -258 2 -20 38 -106 79 -190 41
-83 74 -153 73 -154 -4 -4 -501 501 -644 654 l-133 141 103 84 c136 112 547
427 557 428 2 0 20 -10 40 -22z m-348 -27 c-6 -10 -22 -26 -36 -35 -14 -9 -53
-44 -86 -77 -57 -55 -99 -81 -68 -41 13 15 12 16 -3 3 -10 -7 -16 -17 -13 -21
4 -7 -201 -175 -227 -185 -8 -3 -21 1 -28 10 -11 13 -10 18 6 30 10 7 116 86
234 174 118 88 219 161 223 161 4 0 3 -8 -2 -19z m-1226 -420 c-6 -4 -55 -41
-110 -82 -233 -170 -564 -439 -785 -638 -145 -129 -157 -135 -35 -16 243 238
868 744 920 745 11 0 15 -3 10 -9z m215 -108 c-1 -5 -45 -43 -99 -85 -276
-217 -672 -589 -882 -828 -45 -52 -87 -96 -91 -98 -74 -31 413 469 697 714
178 154 358 303 368 303 4 1 7 -2 7 -6z m4 -55 c-285 -223 -641 -555 -892
-833 -128 -141 -152 -165 -152 -151 0 16 257 291 427 456 240 235 627 569 641
555 3 -3 -8 -15 -24 -27z m2 -52 c-248 -207 -367 -316 -596 -545 -146 -146
-296 -303 -334 -348 -39 -45 -74 -80 -78 -77 -10 7 9 30 172 210 218 239 558
559 800 752 83 67 114 74 36 8z m64 6 c0 -5 -52 -52 -116 -106 -241 -205 -576
-530 -791 -768 -103 -114 -133 -142 -133 -122 0 15 221 254 405 440 188 189
354 341 540 497 78 65 95 76 95 59z m-20 -80 c-224 -184 -848 -805 -937 -932
-14 -20 -43 -28 -43 -12 0 23 377 428 561 603 225 212 443 399 454 388 7 -7
-5 -22 -35 -47z m49 1 c0 -10 -52 -63 -116 -118 -152 -132 -515 -494 -678
-675 -146 -162 -168 -188 -146 -175 9 5 12 4 8 -2 -7 -11 -57 -5 -57 7 0 29
548 594 775 798 71 64 145 132 165 149 40 37 50 40 49 16z m-24 -70 c-138
-117 -704 -672 -844 -828 -35 -38 -53 -57 -42 -41 112 154 888 922 910 901 3
-4 -7 -18 -24 -32z m-5 -56 c-25 -23 -126 -117 -225 -209 -230 -213 -426 -411
-662 -667 -192 -209 -254 -262 -325 -282 -23 -6 -94 -9 -160 -7 -119 3 -120 3
-147 34 -35 39 -91 206 -98 294 -3 41 -1 81 6 103 16 48 79 132 173 231 l75
79 42 -80 c76 -147 194 -268 331 -341 l75 -41 110 120 c212 231 812 808 840
808 6 0 -10 -18 -35 -42z m23 -89 c-310 -280 -630 -605 -988 -1002 -97 -109
-147 -136 -245 -135 l-65 2 60 7 c126 14 145 28 338 243 288 322 908 936 945
937 8 0 -13 -24 -45 -52z m1172 -289 c23 -7 57 -28 81 -53 116 -116 58 -300
-108 -340 -52 -12 -127 13 -172 58 -108 107 -71 281 70 331 48 17 77 18 129 4z
m980 -609 c208 -114 318 -179 476 -281 148 -96 197 -115 369 -147 195 -36 324
-105 452 -241 40 -43 93 -112 117 -155 48 -84 96 -215 105 -286 4 -32 -1 -23
-17 35 -47 164 -123 291 -245 406 -131 124 -231 172 -435 208 -153 28 -201 47
-332 132 -113 74 -612 384 -697 433 -27 15 -48 30 -48 33 0 2 24 -9 53 -25 28
-16 120 -67 202 -112z m-1980 122 c-6 -5 -134 -85 -285 -178 -151 -92 -340
-210 -419 -261 -155 -100 -182 -111 -366 -148 -140 -28 -187 -43 -270 -90
-187 -106 -334 -302 -396 -528 -16 -61 -18 -64 -14 -24 19 153 122 343 257
474 123 119 221 166 447 212 163 34 209 52 326 131 115 77 257 161 495 294
217 121 245 136 225 118z m-978 -717 c246 -112 270 -440 49 -661 -219 -219
-541 -197 -654 44 -24 50 -27 70 -27 157 0 117 15 165 82 267 125 191 369 276
550 193z m3934 25 c86 -16 187 -71 254 -139 111 -113 162 -236 152 -373 -23
-338 -418 -440 -682 -175 -114 115 -164 239 -152 379 7 84 33 143 87 202 53
57 92 82 161 100 65 18 109 19 180 6z"/>
<path d="M4020 6477 c-67 -29 -233 -127 -227 -134 3 -2 18 3 34 13 l28 18 -22
-25 -22 -24 32 -67 c18 -37 37 -66 42 -64 6 2 8 12 6 22 -2 10 -5 44 -5 74 -1
42 4 62 21 86 50 70 157 84 228 30 19 -15 40 -24 45 -21 17 11 11 53 -12 80
-33 37 -80 40 -148 12z"/>
<path d="M4009 6410 c-67 -19 -99 -60 -99 -127 1 -74 53 -123 129 -123 88 0
147 81 119 165 -20 60 -92 100 -149 85z"/>
<path d="M4758 5611 c-14 -11 -54 -75 -89 -142 -37 -72 -85 -145 -114 -177
-44 -48 -46 -53 -20 -39 45 23 133 113 173 176 88 141 112 132 389 -144 544
-545 1014 -897 1342 -1005 75 -25 93 -21 24 5 -97 36 -272 131 -405 221 -314
211 -664 527 -1038 938 -123 136 -184 186 -223 186 -8 0 -25 -9 -39 -19z"/>
<path d="M1443 4579 c-124 -145 -137 -170 -137 -248 1 -109 37 -231 68 -231 7
0 19 14 26 31 11 25 11 40 1 80 -16 62 -8 109 26 149 40 48 78 63 143 57 57
-5 90 4 90 25 0 16 -93 157 -104 158 -5 0 -56 -48 -114 -107 -58 -60 -101
-101 -97 -93 14 25 90 122 144 183 48 55 63 87 41 87 -5 0 -45 -41 -87 -91z"/>
<path d="M1464 4357 c-26 -23 -37 -43 -41 -73 -11 -83 44 -144 130 -144 118 0
167 148 76 225 -24 19 -42 25 -80 25 -42 0 -55 -5 -85 -33z"/>
<path d="M1849 4222 c-62 -81 -158 -173 -210 -199 -37 -19 -40 -23 -19 -23 35
0 106 35 155 75 39 32 155 165 155 178 0 4 -9 11 -19 16 -16 9 -25 2 -62 -47z"/>
<path d="M3964 4731 c-99 -45 -131 -159 -70 -251 46 -70 143 -92 224 -51 122
62 115 244 -12 302 -52 23 -90 23 -142 0z m136 -36 c96 -50 90 -188 -12 -241
-110 -57 -231 74 -173 187 32 61 121 87 185 54z"/>
<path d="M3972 4680 c-69 -42 -80 -136 -22 -190 38 -36 81 -44 130 -24 92 37
103 162 18 214 -42 25 -84 25 -126 0z"/>
<path d="M2287 3200 c-29 -143 -171 -298 -321 -350 -74 -25 -192 -27 -262 -3
-64 21 -164 119 -187 183 l-17 45 4 -38 c11 -88 81 -181 172 -227 69 -35 204
-40 288 -11 157 55 273 180 321 344 9 31 15 65 13 75 -3 10 -7 3 -11 -18z"/>
<path d="M5641 3203 c-1 -37 36 -141 68 -192 48 -74 142 -158 218 -194 64 -30
75 -32 178 -32 100 0 115 2 161 27 91 48 175 172 173 256 0 23 -2 21 -13 -13
-28 -89 -82 -152 -166 -196 -39 -21 -59 -24 -155 -24 -107 0 -112 1 -185 37
-121 60 -222 174 -260 295 -11 32 -19 48 -19 36z"/>
<path d="M3645 3805 c-144 -32 -241 -102 -366 -265 -125 -163 -208 -221 -329
-228 -118 -7 -198 25 -247 97 -28 42 -29 71 -2 105 25 32 13 33 -32 3 -135
-91 -129 -323 12 -481 44 -50 150 -126 176 -126 10 0 13 21 13 90 0 79 2 91
20 100 14 7 26 8 39 1 16 -9 20 -25 23 -111 3 -87 6 -102 25 -122 37 -37 47
-13 58 140 l10 137 29 3 c16 2 32 -2 37 -10 5 -7 9 -73 9 -146 0 -137 8 -172
38 -172 38 0 42 18 42 211 0 157 3 190 16 203 20 20 38 20 59 0 13 -14 15 -44
13 -214 -3 -179 -1 -201 15 -217 26 -26 50 -6 59 48 3 24 7 142 7 261 1 207 2
218 21 228 14 8 26 8 40 0 19 -10 20 -21 20 -271 0 -268 4 -299 40 -299 35 0
40 32 41 267 1 125 4 257 8 293 5 58 8 65 29 68 54 8 54 3 51 -321 -4 -287 -3
-299 16 -313 10 -8 24 -13 30 -11 30 10 35 54 35 349 0 256 2 299 16 312 18
18 32 20 54 6 13 -8 14 -53 11 -322 -3 -306 -2 -314 18 -338 l21 -25 20 24
c18 21 20 39 21 190 1 91 4 231 8 311 l6 145 35 0 35 0 5 -324 c5 -293 7 -325
22 -335 14 -8 22 -7 35 7 16 16 19 48 23 325 3 169 9 313 13 320 12 18 55 14
66 -7 7 -11 8 -124 4 -307 -3 -198 -2 -298 6 -316 12 -32 45 -38 60 -10 5 10
13 158 17 330 7 331 8 337 56 330 l23 -3 5 -328 c5 -338 7 -355 45 -341 30 12
35 58 35 330 0 171 4 283 10 295 6 10 21 19 34 19 48 0 49 -11 42 -303 -8
-288 -4 -327 33 -327 39 0 45 33 49 297 5 269 6 278 54 271 l23 -3 5 -267 c5
-273 9 -298 44 -285 29 11 36 56 36 238 0 105 4 188 10 200 13 23 52 25 70 4
9 -11 11 -65 8 -203 -2 -148 0 -192 11 -205 15 -19 43 -9 57 20 4 10 10 81 13
158 l6 140 35 0 35 0 5 -135 c5 -137 10 -160 35 -160 30 0 45 42 45 128 0 93
10 122 43 122 39 0 47 -18 47 -112 l0 -88 52 26 c62 31 158 121 192 178 34 59
56 140 56 211 0 76 -38 159 -89 192 -46 31 -56 29 -30 -6 27 -37 19 -79 -24
-123 -66 -65 -173 -91 -275 -64 -104 26 -168 80 -289 241 -155 205 -282 276
-502 278 -53 0 -119 -5 -148 -12 -44 -11 -63 -10 -122 3 -83 19 -203 19 -286
1z m293 -30 c47 -11 74 -13 100 -6 75 20 185 23 272 7 162 -29 271 -105 401
-281 115 -155 207 -225 319 -240 88 -12 221 37 251 93 7 12 16 22 21 22 13 0
0 -39 -24 -72 -24 -35 -109 -75 -175 -84 -57 -7 -137 8 -194 37 -50 25 -112
88 -197 200 -167 222 -285 289 -512 290 -58 1 -126 -4 -151 -11 -39 -10 -60
-9 -125 5 -57 13 -102 16 -173 12 -199 -11 -324 -84 -472 -277 -67 -89 -151
-170 -199 -195 -142 -73 -327 -36 -386 77 -25 48 -15 53 21 10 52 -60 125 -85
230 -80 128 7 189 48 324 218 138 174 229 243 364 276 72 17 229 17 305 -1z"/>
<path d="M1130 2127 l0 -353 -35 -34 c-19 -19 -35 -39 -35 -45 0 -6 16 -26 35
-45 l35 -34 0 -118 0 -118 205 0 205 0 0 286 0 287 -34 32 -35 32 25 12 c38
17 44 49 44 227 l0 166 -29 29 -29 29 -176 0 -176 0 0 -353z m290 93 l0 -150
-90 0 -90 0 0 143 c0 79 3 147 7 150 3 4 44 7 90 7 l83 0 0 -150z m0 -495 l0
-225 -90 0 -90 0 0 58 c0 53 3 61 35 92 19 19 35 40 35 47 0 8 -16 29 -35 49
-34 34 -35 36 -35 119 l0 85 90 0 90 0 0 -225z"/>
<path d="M1713 2456 l-28 -24 -3 -329 -3 -328 -36 -37 -37 -38 37 -38 37 -38
0 -122 0 -122 60 0 60 0 0 122 0 122 36 37 36 37 -36 40 c-35 39 -36 41 -36
126 l0 86 90 0 90 0 0 -285 0 -285 55 0 55 0 0 525 0 526 -25 24 c-23 24 -28
25 -174 25 -144 0 -151 -1 -178 -24z m267 -236 l0 -150 -90 0 -90 0 0 150 0
150 90 0 90 0 0 -150z"/>
<path d="M2239 2158 c-1 -406 1 -381 -37 -413 -41 -34 -40 -53 2 -94 l35 -34
0 -116 -1 -116 56 -3 56 -3 0 120 0 120 35 35 c19 20 35 39 35 44 0 4 -16 23
-35 42 -35 34 -35 34 -35 122 l0 88 90 0 90 0 0 -285 0 -285 60 0 60 0 0 275
c0 296 -4 320 -52 346 l-22 12 26 13 c43 23 50 56 46 239 l-3 167 -28 24 c-27
23 -33 24 -203 24 l-174 0 -1 -322z m291 57 l0 -155 -90 0 -90 0 0 155 0 155
90 0 90 0 0 -155z m-231 -309 c1 -149 2 -161 23 -183 l21 -23 -21 -23 c-15
-15 -22 -37 -23 -63 0 -21 -4 -57 -8 -79 -8 -35 -9 -31 -10 36 -1 62 -5 79
-21 94 -11 10 -20 23 -20 30 0 7 9 20 20 30 19 17 20 32 22 294 1 221 3 253 8
161 4 -63 8 -187 9 -274z"/>
<path d="M2790 2127 l0 -353 -35 -34 c-19 -19 -35 -38 -35 -42 0 -5 16 -25 35
-45 l35 -36 0 -119 0 -118 205 0 205 0 0 286 0 287 -36 33 c-22 21 -30 34 -20
34 8 0 24 12 35 26 19 25 21 40 21 196 0 171 -5 199 -39 225 -11 9 -70 12
-193 13 l-178 0 0 -353z m298 91 l3 -148 -90 0 -89 0 -4 143 c-2 78 -2 146 0
150 2 4 43 6 90 5 l87 -3 3 -147z m2 -493 l0 -225 -92 0 -93 0 1 60 c1 54 4
64 33 94 38 39 36 63 -6 96 -25 20 -27 26 -27 110 l-1 90 93 0 92 0 0 -225z"/>
<path d="M3340 2128 l1 -351 -37 -38 c-40 -41 -40 -46 13 -94 19 -18 22 -32
25 -140 l3 -120 208 -3 208 -2 -3 57 -3 58 -147 3 -148 3 0 62 c0 57 3 66 30
92 17 16 30 36 30 45 0 9 -13 29 -30 45 -29 28 -30 32 -30 117 l0 88 89 0 88
0 0 55 -1 55 -88 0 -88 0 0 155 0 155 150 0 150 0 0 55 0 55 -210 0 -210 0 0
-352z m69 -232 c1 -139 3 -151 23 -173 l21 -23 -21 -23 c-16 -17 -22 -40 -27
-96 -7 -98 -15 -103 -15 -9 0 62 -3 78 -20 93 -11 10 -20 23 -20 30 0 7 9 20
20 30 19 17 20 32 22 299 1 241 2 262 9 151 3 -71 7 -197 8 -279z"/>
<path d="M3900 2130 l0 -351 -35 -35 c-19 -19 -35 -40 -35 -47 0 -7 16 -28 35
-47 l35 -34 0 -118 0 -118 55 0 55 0 0 118 0 118 35 34 c19 19 35 39 35 45 0
6 -16 26 -35 45 -35 34 -35 34 -35 122 l0 88 90 0 90 0 0 -285 0 -285 60 0 61
0 -3 291 -3 291 -33 28 c-32 27 -33 28 -13 35 44 14 53 53 49 237 l-3 170 -28
24 c-27 23 -33 24 -203 24 l-174 0 0 -350z m290 85 l0 -156 -87 3 -88 3 -3
140 c-1 76 0 145 2 152 4 9 30 13 91 13 l85 0 0 -155z m-210 -490 c25 -23 25
-37 0 -60 -16 -15 -20 -32 -21 -94 -1 -56 -3 -68 -9 -46 -4 17 -8 52 -9 79 -1
36 -7 56 -23 73 l-21 23 21 23 c20 21 22 34 22 153 0 71 3 194 8 274 7 138 7
131 10 -131 2 -261 3 -277 22 -294z"/>
<path d="M4839 2467 c-35 -27 -39 -54 -39 -256 0 -197 0 -200 24 -228 24 -27
28 -28 148 -33 l123 -5 3 -223 2 -223 -92 3 -93 3 -1 59 c-1 51 2 62 27 91 42
48 37 66 -32 126 l-61 52 -60 -60 c-60 -60 -60 -60 -45 -89 8 -16 24 -38 36
-48 19 -17 21 -30 21 -138 l0 -118 205 0 205 0 0 305 c0 317 -3 343 -44 364
-11 6 -73 12 -136 13 l-115 3 0 150 0 150 90 0 90 0 3 -72 3 -73 54 0 55 0 0
99 c0 92 -2 102 -26 130 l-26 31 -151 0 c-104 -1 -157 -5 -168 -13z"/>
<path d="M5350 2127 l0 -353 -35 -34 c-19 -19 -35 -38 -35 -42 0 -4 16 -25 35
-47 l35 -38 0 -117 0 -116 60 0 60 0 0 123 0 123 30 29 c17 16 30 35 30 43 0
7 -13 26 -30 40 -29 26 -30 29 -30 119 l0 93 90 0 90 0 0 -285 0 -286 58 3 57
3 3 548 3 547 -61 0 -60 0 0 -210 0 -210 -90 0 -90 0 0 210 0 210 -60 0 -60 0
0 -353z m92 -404 l21 -23 -20 -22 c-16 -17 -24 -45 -31 -103 l-9 -80 -2 76
c-1 62 -5 79 -21 94 -11 10 -20 23 -20 30 0 7 9 20 20 30 19 17 20 32 22 299
l1 281 8 -279 c8 -268 10 -280 31 -303z"/>
<path d="M5935 2455 l-25 -24 0 -324 0 -323 -35 -34 c-19 -19 -35 -41 -35 -50
0 -9 16 -31 35 -50 l35 -34 0 -118 0 -118 205 0 206 0 -3 526 -3 526 -28 24
c-27 23 -34 24 -178 24 -146 0 -151 -1 -174 -25z m265 -520 l0 -435 -90 0 -90
0 0 63 c0 59 2 65 35 96 19 18 35 36 35 40 0 4 -16 22 -35 41 l-35 34 0 298 0
298 90 0 90 0 0 -435z m-210 -210 c25 -23 25 -37 0 -60 -17 -15 -20 -31 -20
-93 0 -94 -8 -89 -15 9 -5 56 -11 79 -27 96 l-21 23 21 23 c20 21 22 34 22
134 0 60 3 186 8 279 l7 169 3 -281 c2 -266 3 -282 22 -299z"/>
<path d="M6460 2129 l0 -350 -35 -33 c-19 -19 -35 -40 -35 -48 0 -8 16 -29 35
-48 l35 -34 0 -118 0 -118 60 0 60 0 0 129 c0 103 3 130 14 134 8 3 23 18 32
32 17 25 16 27 -15 58 -30 32 -31 35 -31 125 l0 92 111 0 c110 0 142 7 166 39
9 11 12 76 13 223 l0 206 -26 31 -26 31 -179 0 -179 0 0 -351z m295 86 l0
-150 -87 -3 -88 -3 0 156 0 156 88 -3 87 -3 0 -150z"/>
<path d="M1550 1251 c0 -6 4 -12 9 -16 8 -4 166 -191 210 -247 12 -16 0 -33
-103 -157 -64 -76 -116 -142 -116 -145 0 -3 1103 -6 2451 -6 2061 0 2450 2
2446 14 -3 7 -49 72 -102 144 -60 82 -94 136 -89 144 4 7 49 70 101 139 51 69
93 129 93 133 0 3 -1102 6 -2450 6 -1524 0 -2450 -4 -2450 -9z m413 -189 l1
-93 40 3 41 3 2 75 c1 41 2 83 2 93 1 11 9 17 26 17 l25 0 0 -190 0 -190 -27
0 c-28 0 -28 1 -28 68 l0 67 -40 0 c-25 0 -40 -5 -41 -12 -1 -7 -2 -38 -3 -68
-1 -52 -3 -55 -26 -55 l-25 0 0 183 c0 101 3 187 7 191 4 4 16 6 26 4 17 -3
19 -13 20 -96z m365 86 c8 -8 12 -65 12 -190 l0 -178 -25 0 c-24 0 -25 2 -25
70 l0 70 -40 0 -40 0 0 -70 c0 -68 -1 -70 -25 -70 l-25 0 0 180 c0 160 2 180
18 189 24 14 135 14 150 -1z m122 -178 l0 -190 -25 0 -25 0 0 190 0 190 25 0
25 0 0 -190z m240 171 c16 -31 13 -156 -5 -171 -13 -11 -13 -15 0 -33 10 -14
15 -46 15 -89 l0 -68 -30 0 -30 0 0 70 0 70 -40 0 -40 0 0 -70 c0 -68 -1 -70
-25 -70 l-25 0 0 190 0 190 85 0 c73 0 86 -3 95 -19z m238 7 c7 -7 12 -29 12
-50 0 -34 -3 -38 -25 -38 -20 0 -25 5 -25 25 0 23 -4 25 -40 25 l-40 0 0 -140
0 -140 40 0 c36 0 40 3 40 25 0 20 5 25 25 25 23 0 25 -3 25 -50 l0 -50 -90 0
-90 0 0 190 0 190 78 0 c47 0 83 -5 90 -12z m122 -153 l0 -165 40 0 40 0 0
165 0 165 25 0 25 0 0 -190 0 -190 -90 0 -90 0 0 190 0 190 25 0 25 0 0 -165z
m380 141 c0 -21 -6 -25 -32 -28 l-33 -3 -3 -162 -2 -163 -25 0 -25 0 0 165 0
165 -35 0 c-27 0 -35 4 -35 18 0 29 8 32 102 32 87 0 88 0 88 -24z m228 12 c7
-7 12 -34 12 -60 0 -45 -2 -48 -25 -48 -22 0 -25 4 -25 35 0 34 -1 35 -40 35
l-40 0 0 -70 0 -70 53 0 c29 0 58 -5 65 -12 7 -7 12 -44 12 -95 l0 -83 -90 0
-90 0 0 55 c0 52 1 55 25 55 21 0 25 -5 25 -30 0 -28 2 -30 40 -30 l40 0 0 45
0 45 -53 0 c-29 0 -58 5 -65 12 -16 16 -16 200 0 216 7 7 40 12 78 12 38 0 71
-5 78 -12z m366 -10 c13 -18 16 -55 16 -190 l0 -168 -30 0 -30 0 0 70 0 70
-40 0 -40 0 0 -70 c0 -68 -1 -70 -25 -70 l-25 0 0 174 c0 208 -1 206 95 206
55 0 66 -3 79 -22z m155 -78 c19 -56 37 -103 41 -105 3 -2 5 35 4 83 -3 108 1
122 32 122 l24 0 0 -190 0 -190 -27 0 c-26 0 -30 6 -62 98 -19 53 -38 101 -42
106 -5 6 -9 -36 -9 -97 l0 -107 -25 0 -25 0 0 190 0 190 28 0 c26 0 29 -6 61
-100z m325 84 c13 -13 16 -43 16 -170 0 -88 -4 -164 -10 -175 -9 -16 -22 -19
-95 -19 l-85 0 0 183 c0 101 3 187 7 190 3 4 39 7 79 7 53 0 77 -4 88 -16z
m364 4 c7 -7 12 -34 12 -60 0 -45 -2 -48 -25 -48 -22 0 -25 4 -25 35 0 34 -1
35 -40 35 l-40 0 0 -70 0 -70 53 0 c29 0 58 -5 65 -12 7 -7 12 -44 12 -95 l0
-83 -90 0 -90 0 0 55 c0 52 1 55 25 55 21 0 25 -5 25 -30 0 -28 2 -30 40 -30
l40 0 0 45 0 45 -53 0 c-29 0 -58 5 -65 12 -16 16 -16 200 0 216 7 7 40 12 78
12 38 0 71 -5 78 -12z m122 -83 l0 -95 40 0 40 0 0 95 c0 95 0 95 25 95 l25 0
0 -190 0 -190 -25 0 c-24 0 -25 2 -25 70 l0 70 -40 0 -40 0 0 -70 c0 -68 -1
-70 -25 -70 l-25 0 0 190 0 190 25 0 c25 0 25 0 25 -95z m358 83 c8 -8 12 -65
12 -190 l0 -178 -25 0 c-24 0 -25 2 -25 70 l0 70 -40 0 -40 0 0 -70 c0 -68 -1
-70 -25 -70 l-25 0 0 178 c0 125 4 182 12 190 7 7 40 12 78 12 38 0 71 -5 78
-12z m127 -10 c2 -13 11 -78 19 -146 8 -68 16 -125 18 -128 2 -2 13 64 23 146
18 145 19 150 42 150 29 0 29 0 3 -206 -11 -87 -20 -162 -20 -166 0 -5 -20 -8
-45 -8 -52 0 -47 -12 -70 175 -8 72 -18 147 -21 168 -5 35 -4 37 20 37 18 0
27 -6 31 -22z m375 -3 c0 -24 -2 -25 -70 -25 l-71 0 3 -67 3 -68 38 -3 c32 -3
37 -7 37 -28 0 -21 -4 -24 -40 -24 l-40 0 0 -45 0 -45 70 0 c68 0 70 -1 70
-25 0 -25 0 -25 -95 -25 l-95 0 0 190 0 190 95 0 c95 0 95 0 95 -25z m224 9
c10 -9 16 -33 16 -60 0 -40 -2 -44 -24 -44 -21 0 -25 6 -28 33 -3 30 -5 32
-43 32 l-40 0 0 -65 0 -65 55 -3 c72 -4 80 -16 80 -114 l0 -78 -95 0 -95 0 0
56 c0 54 0 55 28 52 21 -2 27 -8 27 -28 0 -22 4 -25 40 -25 l40 0 0 40 0 40
-58 5 c-36 3 -62 11 -67 20 -13 20 -13 177 0 201 9 16 22 19 80 19 49 0 73 -4
84 -16z"/>
<path d="M4390 970 l0 -141 38 3 37 3 0 135 0 135 -37 3 -38 3 0 -141z"/>
<path d="M1491 1016 l-43 -43 48 -45 48 -45 43 45 43 46 -42 43 c-23 24 -45
43 -48 43 -3 0 -25 -20 -49 -44z"/>
<path d="M6412 1017 l-43 -43 44 -46 43 -46 48 45 48 46 -43 43 c-24 24 -46
44 -49 44 -3 0 -25 -19 -48 -43z"/>
</g>
</svg>
