<?xml version="1.0" standalone="no"?>

<svg version="1.0" xmlns="http://www.w3.org/2000/svg"
 width="40px" height="75px" viewBox="0 0 225.000000 225.000000"
 preserveAspectRatio="xMidYMid meet">
<g transform="translate(0.000000,225.000000) scale(0.100000,-0.100000)"
fill="#ffffff" stroke="none">
<path d="M549 2189 c-8 -15 -10 -91 -7 -253 6 -263 14 -307 108 -526 l49 -115
3 -460 3 -460 34 -70 c150 -307 556 -329 733 -40 62 100 62 99 68 605 l6 465
42 93 c23 52 55 133 69 180 25 82 27 101 31 333 3 219 2 247 -13 259 -12 10
-21 11 -33 3 -14 -8 -18 -29 -20 -102 l-3 -91 -84 0 -85 0 0 89 c0 92 -12 120
-45 107 -12 -4 -15 -25 -15 -101 l0 -95 -75 0 -75 0 0 94 c0 97 -8 114 -45
100 -12 -5 -15 -26 -15 -100 l0 -94 -75 0 -75 0 0 95 c0 76 -3 97 -15 101 -33
13 -45 -15 -45 -107 l0 -89 -70 0 -70 0 0 83 c0 95 -15 130 -47 111 -15 -9
-19 -27 -21 -103 l-3 -91 -74 0 -75 0 0 88 c0 87 -8 112 -37 112 -7 0 -17 -10
-24 -21z m1071 -329 l0 -80 -505 0 -505 0 0 80 0 80 505 0 505 0 0 -80z m-10
-162 c0 -38 -35 -140 -95 -281 l-16 -38 -62 56 c-34 31 -95 73 -136 93 -73 36
-78 37 -186 37 -103 0 -114 -2 -175 -32 -36 -18 -98 -59 -137 -92 l-71 -60
-37 87 c-34 83 -75 212 -75 239 0 10 101 13 495 13 l495 0 0 -22z m-369 -214
c57 -22 157 -93 198 -139 l32 -37 -3 -456 -3 -457 -26 -55 c-55 -116 -148
-188 -269 -211 -55 -10 -75 -9 -130 5 -117 30 -192 95 -248 213 l-27 58 -3
450 -3 451 68 66 c69 66 142 110 210 128 51 13 150 5 204 -16z"/>
<path d="M1053 1181 c-56 -35 -65 -67 -61 -207 3 -123 3 -124 34 -155 60 -60
170 -45 202 26 7 15 12 77 12 151 l0 124 -33 36 c-42 46 -104 56 -154 25z
m109 -68 c15 -14 18 -32 18 -124 0 -104 -1 -108 -26 -128 -34 -27 -50 -26 -79
4 -23 22 -25 31 -25 122 0 115 12 143 62 143 17 0 40 -7 50 -17z"/>
</g>
</svg>
